<svg width="48" height="48" viewBox="0 0 48 48" fill="none" xmlns="http://www.w3.org/2000/svg">
<circle cx="24" cy="24" r="24" fill="#E1306C"/>
<path d="M23.9991 16.9318C20.0903 16.9318 16.9357 20.0864 16.9357 23.9952C16.9357 27.904 20.0903 31.0586 23.9991 31.0586C27.9079 31.0586 31.0625 27.904 31.0625 23.9952C31.0625 20.0864 27.9079 16.9318 23.9991 16.9318ZM23.9991 28.5859C21.4713 28.5859 19.4084 26.523 19.4084 23.9952C19.4084 21.4674 21.4713 19.4045 23.9991 19.4045C26.5269 19.4045 28.5898 21.4674 28.5898 23.9952C28.5898 26.523 26.5269 28.5859 23.9991 28.5859ZM31.3518 14.9964C30.4391 14.9964 29.7022 15.7333 29.7022 16.646C29.7022 17.5586 30.4391 18.2956 31.3518 18.2956C32.2644 18.2956 33.0014 17.562 33.0014 16.646C33.0017 16.4293 32.9592 16.2146 32.8764 16.0144C32.7936 15.8141 32.6721 15.6321 32.5188 15.4789C32.3656 15.3257 32.1836 15.2042 31.9834 15.1214C31.7831 15.0386 31.5685 14.9961 31.3518 14.9964ZM37.7677 23.9952C37.7677 22.0942 37.7849 20.2104 37.6782 18.3128C37.5714 16.1087 37.0686 14.1526 35.4569 12.5409C33.8417 10.9257 31.889 10.4263 29.6849 10.3196C27.7839 10.2128 25.9001 10.23 24.0025 10.23C22.1015 10.23 20.2177 10.2128 18.3201 10.3196C16.1161 10.4263 14.1599 10.9291 12.5482 12.5409C10.933 14.156 10.4337 16.1087 10.3269 18.3128C10.2201 20.2138 10.2374 22.0976 10.2374 23.9952C10.2374 25.8928 10.2201 27.78 10.3269 29.6776C10.4337 31.8817 10.9365 33.8378 12.5482 35.4495C14.1634 37.0647 16.1161 37.5641 18.3201 37.6708C20.2212 37.7776 22.105 37.7604 24.0025 37.7604C25.9036 37.7604 27.7874 37.7776 29.6849 37.6708C31.889 37.5641 33.8451 37.0613 35.4569 35.4495C37.0721 33.8344 37.5714 31.8817 37.6782 29.6776C37.7884 27.78 37.7677 25.8962 37.7677 23.9952ZM34.7371 32.1159C34.4857 32.7427 34.1826 33.211 33.6971 33.6932C33.2115 34.1788 32.7465 34.4818 32.1198 34.7332C30.3083 35.453 26.0069 35.2911 23.9991 35.2911C21.9913 35.2911 17.6865 35.453 15.875 34.7367C15.2482 34.4853 14.7798 34.1822 14.2977 33.6966C13.8121 33.211 13.509 32.7461 13.2576 32.1193C12.5413 30.3044 12.7032 26.003 12.7032 23.9952C12.7032 21.9874 12.5413 17.6826 13.2576 15.8711C13.509 15.2443 13.8121 14.7759 14.2977 14.2938C14.7833 13.8117 15.2482 13.5052 15.875 13.2538C17.6865 12.5374 21.9913 12.6993 23.9991 12.6993C26.0069 12.6993 30.3117 12.5374 32.1232 13.2538C32.75 13.5052 33.2184 13.8082 33.7005 14.2938C34.1861 14.7794 34.4891 15.2443 34.7405 15.8711C35.4569 17.6826 35.295 21.9874 35.295 23.9952C35.295 26.003 35.4569 30.3044 34.7371 32.1159Z" fill="white"/>
</svg>
