<svg width="48" height="48" viewBox="0 0 48 48" fill="none" xmlns="http://www.w3.org/2000/svg">
<circle cx="24" cy="24" r="24" fill="#0072B1"/>
<path d="M34.4906 11.4971H13.5094C12.4 11.4971 11.5 12.3971 11.5 13.5064V34.4877C11.5 35.5971 12.4 36.4971 13.5094 36.4971H34.4906C35.6 36.4971 36.5 35.5971 36.5 34.4877V13.5064C36.5 12.3971 35.6 11.4971 34.4906 11.4971ZM34.4906 34.4971C20.4969 34.4939 13.5 34.4908 13.5 34.4877C13.5031 20.4939 13.5063 13.4971 13.5094 13.4971C27.5031 13.5002 34.5 13.5033 34.5 13.5064C34.4969 27.5002 34.4938 34.4971 34.4906 34.4971ZM15.2063 20.8689H18.9156V32.8002H15.2063V20.8689ZM17.0625 19.2377C18.2469 19.2377 19.2125 18.2752 19.2125 17.0877C19.2125 16.8054 19.1569 16.5258 19.0488 16.2649C18.9408 16.0041 18.7824 15.7671 18.5828 15.5674C18.3831 15.3678 18.1461 15.2094 17.8853 15.1014C17.6244 14.9933 17.3448 14.9377 17.0625 14.9377C16.7802 14.9377 16.5006 14.9933 16.2397 15.1014C15.9789 15.2094 15.7419 15.3678 15.5422 15.5674C15.3426 15.7671 15.1842 16.0041 15.0762 16.2649C14.9681 16.5258 14.9125 16.8054 14.9125 17.0877C14.9094 18.2752 15.8719 19.2377 17.0625 19.2377ZM24.9469 26.8971C24.9469 25.3408 25.2438 23.8346 27.1719 23.8346C29.0719 23.8346 29.1 25.6127 29.1 26.9971V32.8002H32.8063V26.2564C32.8063 23.0439 32.1125 20.5721 28.3594 20.5721C26.5563 20.5721 25.3469 21.5627 24.85 22.5002H24.8V20.8689H21.2406V32.8002H24.9469V26.8971Z" fill="white"/>
</svg>
