<svg xmlns="http://www.w3.org/2000/svg" width="20" height="20" viewBox="0 0 20 20" fill="none">
  <path d="M9.99967 9.79175C10.4025 9.79175 10.7462 9.64939 11.0309 9.36466C11.3156 9.07994 11.458 8.73619 11.458 8.33341C11.458 7.93064 11.3156 7.58689 11.0309 7.30216C10.7462 7.01744 10.4025 6.87508 9.99967 6.87508C9.5969 6.87508 9.25315 7.01744 8.96842 7.30216C8.6837 7.58689 8.54134 7.93064 8.54134 8.33341C8.54134 8.73619 8.6837 9.07994 8.96842 9.36466C9.25315 9.64939 9.5969 9.79175 9.99967 9.79175ZM9.99967 16.6876C11.8469 15.007 13.2115 13.4827 14.0934 12.1147C14.9754 10.7466 15.4163 9.54175 15.4163 8.50008C15.4163 6.86119 14.892 5.52091 13.8434 4.47925C12.7948 3.43758 11.5136 2.91675 9.99967 2.91675C8.48579 2.91675 7.20454 3.43758 6.15592 4.47925C5.10731 5.52091 4.58301 6.86119 4.58301 8.50008C4.58301 9.54175 5.0344 10.7466 5.93717 12.1147C6.83995 13.4827 8.19412 15.007 9.99967 16.6876ZM9.99967 18.3334C7.76356 16.4306 6.09342 14.6633 4.98926 13.0313C3.88509 11.3994 3.33301 9.88897 3.33301 8.50008C3.33301 6.41675 4.00315 4.75703 5.34342 3.52091C6.6837 2.2848 8.23579 1.66675 9.99967 1.66675C11.7636 1.66675 13.3156 2.2848 14.6559 3.52091C15.9962 4.75703 16.6663 6.41675 16.6663 8.50008C16.6663 9.88897 16.1143 11.3994 15.0101 13.0313C13.9059 14.6633 12.2358 16.4306 9.99967 18.3334Z" fill="#5633D1"/>
</svg>