<svg width="48" height="48" viewBox="0 0 48 48" fill="none" xmlns="http://www.w3.org/2000/svg">
<circle cx="24" cy="24" r="24" fill="#5633D1"/>
<g clip-path="url(#clip0_1_11121)">
<path d="M22.8437 32.267H16.2866C14.1523 32.267 12.333 31.5148 10.8287 30.0105C9.32441 28.5062 8.57227 26.687 8.57227 24.5527C8.57227 22.4184 9.32441 20.5991 10.8287 19.0948C12.333 17.5905 14.1523 16.8384 16.2866 16.8384H22.8437V19.1527H16.2866C14.7951 19.1527 13.5223 19.6798 12.468 20.7341C11.4137 21.7884 10.8866 23.0612 10.8866 24.5527C10.8866 26.0441 11.4137 27.317 12.468 28.3712C13.5223 29.4255 14.7951 29.9527 16.2866 29.9527H22.8437V32.267ZM18.0223 25.7098V23.3955H29.9794V25.7098H18.0223ZM25.158 32.267V29.9527H31.7151C33.2066 29.9527 34.4794 29.4255 35.5337 28.3712C36.588 27.317 37.1151 26.0441 37.1151 24.5527C37.1151 23.0612 36.588 21.7884 35.5337 20.7341C34.4794 19.6798 33.2066 19.1527 31.7151 19.1527H25.158V16.8384H31.7151C33.8494 16.8384 35.6687 17.5905 37.173 19.0948C38.6773 20.5991 39.4294 22.4184 39.4294 24.5527C39.4294 26.687 38.6773 28.5062 37.173 30.0105C35.6687 31.5148 33.8494 32.267 31.7151 32.267H25.158Z" fill="white"/>
</g>
<defs>
<clipPath id="clip0_1_11121">
<rect width="30.8571" height="30.8571" fill="white" transform="translate(8.57227 8.57153)"/>
</clipPath>
</defs>
</svg>
