<svg width="48" height="48" viewBox="0 0 48 48" fill="none" xmlns="http://www.w3.org/2000/svg">
<circle cx="24" cy="24" r="24" fill="#1DA1F2"/>
<g clip-path="url(#clip0_1_11129)">
<path d="M37.9992 15.1603C37.043 15.5875 36.0023 15.895 34.9305 16.0148C36.0433 15.33 36.8767 14.2482 37.2742 12.9723C36.2299 13.6157 35.0859 14.0669 33.893 14.3058C33.3944 13.7537 32.7913 13.3139 32.1214 13.0138C31.4515 12.7137 30.7291 12.5596 29.9992 12.5613C27.0461 12.5613 24.6711 15.0405 24.6711 18.0829C24.6711 18.5102 24.7211 18.9374 24.8023 19.3485C20.3805 19.1089 16.4367 16.921 13.8148 13.5711C13.3371 14.4162 13.0868 15.3785 13.0898 16.3578C13.0898 18.2739 14.0305 19.9634 15.4648 20.9571C14.6195 20.9226 13.794 20.6819 13.0555 20.2547V20.3227C13.0555 23.0058 14.8867 25.2294 17.3273 25.7408C16.8691 25.864 16.3977 25.9271 15.9242 25.9285C15.5773 25.9285 15.2492 25.8929 14.918 25.8443C15.593 28.0323 17.5586 29.6215 19.8992 29.6732C18.068 31.1588 15.7742 32.0327 13.2836 32.0327C12.8367 32.0327 12.4242 32.0165 11.9961 31.9648C14.3586 33.5345 17.1617 34.4408 20.1805 34.4408C29.9805 34.4408 35.343 26.0321 35.343 18.7335C35.343 18.494 35.343 18.2545 35.3273 18.015C36.3648 17.2285 37.2742 16.2543 37.9992 15.1603Z" fill="white"/>
</g>
<defs>
<clipPath id="clip0_1_11129">
<rect width="28" height="29" fill="white" transform="translate(10 9)"/>
</clipPath>
</defs>
</svg>
