<svg width="24" height="24" viewBox="0 0 24 24" fill="none" xmlns="http://www.w3.org/2000/svg">
<path d="M20.0143 0H3.98568C1.78553 0 0.00195312 1.82668 0.00195312 4.08V19.8816C0.00195312 22.1349 1.78553 23.9616 3.98568 23.9616H20.0143C22.2145 23.9616 23.998 22.1349 23.998 19.8816V4.08C23.998 1.82668 22.2145 0 20.0143 0Z" fill="#64748B"/>
<mask id="path-2-inside-1_44_1055" fill="white">
<path d="M5.40527 16.8034V6.26859C5.40527 6.19179 5.43752 6.1532 5.50191 6.1532L5.6038 6.15291L5.77796 6.15099L6.01999 6.1461L6.83079 6.12853L7.70018 6.11202C8.00594 6.10664 8.30908 6.10376 8.6096 6.10376C9.42509 6.10376 10.1119 6.20821 10.6701 6.41701C11.1736 6.59144 11.6328 6.87866 12.0142 7.25778C12.3376 7.58641 12.5875 7.98299 12.7467 8.42014C12.8973 8.84554 12.9736 9.29476 12.9721 9.74725C12.9721 10.6267 12.7735 11.3521 12.3764 11.9235C11.9881 12.4809 11.4464 12.9072 10.8204 13.148L10.7667 13.1682C10.1131 13.4179 9.38928 13.5081 8.59544 13.5138L8.47209 13.5142L8.28902 13.5132L8.19669 13.5119L8.09377 13.5094L8.03172 13.5069L7.99404 13.5049L7.90134 13.5014L7.78801 13.499L7.61741 13.4978L7.57945 13.4977V16.7869C7.58227 16.8071 7.58047 16.8276 7.57418 16.847C7.5679 16.8663 7.55731 16.8839 7.54324 16.8983C7.52918 16.9127 7.51203 16.9235 7.49317 16.93C7.4743 16.9364 7.45422 16.9382 7.43454 16.9353H5.51804C5.44277 16.9353 5.40527 16.8916 5.40527 16.8034ZM7.57954 8.13157V11.5676C7.70802 11.5782 7.83684 11.5837 7.96573 11.5841H8.49702C8.86331 11.5829 9.22748 11.527 9.57806 11.4183L9.64799 11.396C9.96693 11.2989 10.2519 11.1101 10.469 10.8518C10.6707 10.6082 10.7752 10.2725 10.7825 9.84459L10.7829 9.79669C10.7914 9.47778 10.7104 9.16309 10.5494 8.88997C10.3803 8.62583 10.1358 8.42146 9.84924 8.30466C9.47504 8.15571 9.07535 8.08564 8.67408 8.09864L8.46993 8.09922L8.34114 8.10037L8.21825 8.102L8.04484 8.10546L7.9183 8.1091L7.85259 8.1116L7.76476 8.11582L7.68996 8.12053L7.64732 8.12398L7.61048 8.12763L7.59426 8.12955L7.57954 8.13157ZM19.1961 10.9428C18.9153 10.795 18.6174 10.684 18.3095 10.6124L18.2383 10.5967C17.8996 10.5171 17.5538 10.4732 17.2064 10.4658L17.1196 10.4648C16.9159 10.4591 16.7125 10.4841 16.5159 10.539C16.3908 10.5675 16.2795 10.6404 16.2019 10.745C16.1495 10.8286 16.1216 10.9259 16.1215 11.0253C16.1244 11.1217 16.1584 11.2144 16.218 11.289C16.3035 11.3913 16.4062 11.4771 16.5213 11.5422L16.5561 11.5611C16.7857 11.6876 17.0221 11.8005 17.2644 11.899C17.8046 12.0842 18.3209 12.3361 18.8017 12.6491C19.1292 12.8609 19.4003 13.1527 19.5905 13.4983C19.7504 13.8254 19.8305 14.1875 19.8239 14.5533C19.8336 15.0364 19.6987 15.5111 19.4376 15.9135C19.1579 16.322 18.7696 16.6396 18.3187 16.8284C17.8466 17.0409 17.2667 17.1507 16.5793 17.1579L16.5079 17.1583C16.0817 17.1627 15.6561 17.1245 15.2372 17.0442L15.1476 17.0264C14.7949 16.9601 14.4515 16.8493 14.1254 16.6966C14.0926 16.6793 14.0649 16.6533 14.0452 16.6215C14.0254 16.5896 14.0142 16.5529 14.0127 16.5152V14.7182C14.0108 14.7008 14.0135 14.6831 14.0206 14.6672C14.0277 14.6512 14.0389 14.6375 14.0531 14.6275C14.0669 14.6195 14.0827 14.616 14.0986 14.6175C14.1144 14.619 14.1294 14.6253 14.1415 14.6358C14.5267 14.8683 14.9448 15.038 15.381 15.1386C15.7655 15.2373 16.1598 15.2899 16.5561 15.2953C16.9316 15.2953 17.208 15.2457 17.3851 15.1469C17.4651 15.1094 17.5328 15.0489 17.5799 14.9728C17.6271 14.8968 17.6517 14.8083 17.6508 14.7182C17.6508 14.5756 17.5703 14.4381 17.4093 14.3061C17.3418 14.2508 17.245 14.1906 17.119 14.1256L17.0588 14.0953L16.9944 14.0643L16.9607 14.0485L16.89 14.0165C16.8778 14.011 16.8655 14.0055 16.8532 14.0001L16.7763 13.9671L16.7363 13.9503L16.6533 13.9162L16.6101 13.899L16.5208 13.8637L16.4274 13.8279C15.9219 13.6477 15.4426 13.3982 15.0027 13.086C14.688 12.8619 14.429 12.5655 14.2461 12.2205C14.0878 11.8956 14.0078 11.5367 14.0127 11.1736C14.0118 10.7374 14.1288 10.3095 14.3508 9.93714C14.6038 9.52722 14.9672 9.20082 15.3971 8.99749C15.8693 8.75586 16.4594 8.6349 17.1678 8.6347C17.5826 8.63129 17.9971 8.66163 18.4073 8.72542C18.7043 8.764 18.9947 8.84444 19.2702 8.96446C19.3146 8.97752 19.3503 9.01102 19.3668 9.05518C19.3777 9.09541 19.3831 9.13698 19.3829 9.17883V10.844C19.3852 10.8833 19.3668 10.921 19.3346 10.9428C19.3131 10.9538 19.2894 10.9595 19.2654 10.9595C19.2413 10.9595 19.2176 10.9538 19.1961 10.9428Z"/>
</mask>
<path d="M5.40527 16.8034V6.26859C5.40527 6.19179 5.43752 6.1532 5.50191 6.1532L5.6038 6.15291L5.77796 6.15099L6.01999 6.1461L6.83079 6.12853L7.70018 6.11202C8.00594 6.10664 8.30908 6.10376 8.6096 6.10376C9.42509 6.10376 10.1119 6.20821 10.6701 6.41701C11.1736 6.59144 11.6328 6.87866 12.0142 7.25778C12.3376 7.58641 12.5875 7.98299 12.7467 8.42014C12.8973 8.84554 12.9736 9.29476 12.9721 9.74725C12.9721 10.6267 12.7735 11.3521 12.3764 11.9235C11.9881 12.4809 11.4464 12.9072 10.8204 13.148L10.7667 13.1682C10.1131 13.4179 9.38928 13.5081 8.59544 13.5138L8.47209 13.5142L8.28902 13.5132L8.19669 13.5119L8.09377 13.5094L8.03172 13.5069L7.99404 13.5049L7.90134 13.5014L7.78801 13.499L7.61741 13.4978L7.57945 13.4977V16.7869C7.58227 16.8071 7.58047 16.8276 7.57418 16.847C7.5679 16.8663 7.55731 16.8839 7.54324 16.8983C7.52918 16.9127 7.51203 16.9235 7.49317 16.93C7.4743 16.9364 7.45422 16.9382 7.43454 16.9353H5.51804C5.44277 16.9353 5.40527 16.8916 5.40527 16.8034ZM7.57954 8.13157V11.5676C7.70802 11.5782 7.83684 11.5837 7.96573 11.5841H8.49702C8.86331 11.5829 9.22748 11.527 9.57806 11.4183L9.64799 11.396C9.96693 11.2989 10.2519 11.1101 10.469 10.8518C10.6707 10.6082 10.7752 10.2725 10.7825 9.84459L10.7829 9.79669C10.7914 9.47778 10.7104 9.16309 10.5494 8.88997C10.3803 8.62583 10.1358 8.42146 9.84924 8.30466C9.47504 8.15571 9.07535 8.08564 8.67408 8.09864L8.46993 8.09922L8.34114 8.10037L8.21825 8.102L8.04484 8.10546L7.9183 8.1091L7.85259 8.1116L7.76476 8.11582L7.68996 8.12053L7.64732 8.12398L7.61048 8.12763L7.59426 8.12955L7.57954 8.13157ZM19.1961 10.9428C18.9153 10.795 18.6174 10.684 18.3095 10.6124L18.2383 10.5967C17.8996 10.5171 17.5538 10.4732 17.2064 10.4658L17.1196 10.4648C16.9159 10.4591 16.7125 10.4841 16.5159 10.539C16.3908 10.5675 16.2795 10.6404 16.2019 10.745C16.1495 10.8286 16.1216 10.9259 16.1215 11.0253C16.1244 11.1217 16.1584 11.2144 16.218 11.289C16.3035 11.3913 16.4062 11.4771 16.5213 11.5422L16.5561 11.5611C16.7857 11.6876 17.0221 11.8005 17.2644 11.899C17.8046 12.0842 18.3209 12.3361 18.8017 12.6491C19.1292 12.8609 19.4003 13.1527 19.5905 13.4983C19.7504 13.8254 19.8305 14.1875 19.8239 14.5533C19.8336 15.0364 19.6987 15.5111 19.4376 15.9135C19.1579 16.322 18.7696 16.6396 18.3187 16.8284C17.8466 17.0409 17.2667 17.1507 16.5793 17.1579L16.5079 17.1583C16.0817 17.1627 15.6561 17.1245 15.2372 17.0442L15.1476 17.0264C14.7949 16.9601 14.4515 16.8493 14.1254 16.6966C14.0926 16.6793 14.0649 16.6533 14.0452 16.6215C14.0254 16.5896 14.0142 16.5529 14.0127 16.5152V14.7182C14.0108 14.7008 14.0135 14.6831 14.0206 14.6672C14.0277 14.6512 14.0389 14.6375 14.0531 14.6275C14.0669 14.6195 14.0827 14.616 14.0986 14.6175C14.1144 14.619 14.1294 14.6253 14.1415 14.6358C14.5267 14.8683 14.9448 15.038 15.381 15.1386C15.7655 15.2373 16.1598 15.2899 16.5561 15.2953C16.9316 15.2953 17.208 15.2457 17.3851 15.1469C17.4651 15.1094 17.5328 15.0489 17.5799 14.9728C17.6271 14.8968 17.6517 14.8083 17.6508 14.7182C17.6508 14.5756 17.5703 14.4381 17.4093 14.3061C17.3418 14.2508 17.245 14.1906 17.119 14.1256L17.0588 14.0953L16.9944 14.0643L16.9607 14.0485L16.89 14.0165C16.8778 14.011 16.8655 14.0055 16.8532 14.0001L16.7763 13.9671L16.7363 13.9503L16.6533 13.9162L16.6101 13.899L16.5208 13.8637L16.4274 13.8279C15.9219 13.6477 15.4426 13.3982 15.0027 13.086C14.688 12.8619 14.429 12.5655 14.2461 12.2205C14.0878 11.8956 14.0078 11.5367 14.0127 11.1736C14.0118 10.7374 14.1288 10.3095 14.3508 9.93714C14.6038 9.52722 14.9672 9.20082 15.3971 8.99749C15.8693 8.75586 16.4594 8.6349 17.1678 8.6347C17.5826 8.63129 17.9971 8.66163 18.4073 8.72542C18.7043 8.764 18.9947 8.84444 19.2702 8.96446C19.3146 8.97752 19.3503 9.01102 19.3668 9.05518C19.3777 9.09541 19.3831 9.13698 19.3829 9.17883V10.844C19.3852 10.8833 19.3668 10.921 19.3346 10.9428C19.3131 10.9538 19.2894 10.9595 19.2654 10.9595C19.2413 10.9595 19.2176 10.9538 19.1961 10.9428Z" fill="#31A8FF" stroke="#757575" stroke-width="0.192" mask="url(#path-2-inside-1_44_1055)"/>
</svg>
