<svg width="24" height="24" viewBox="0 0 24 24" fill="none" xmlns="http://www.w3.org/2000/svg">
<path d="M4.25123 0H19.7488C22.0983 0 23.998 1.94563 23.998 4.35197V19.6096C23.998 22.016 22.0983 23.9616 19.7488 23.9616H4.25123C1.90168 23.9616 0.00195312 22.016 0.00195312 19.6096V4.35197C0.00195312 1.94563 1.90168 0 4.25123 0Z" fill="#64748B"/>
<path d="M5.80128 6.20221L5.80119 6.20221C5.77571 6.20221 5.76609 6.20929 5.76155 6.21465C5.7557 6.22155 5.74917 6.23647 5.74917 6.26682V16.8038C5.74917 16.8441 5.75808 16.8632 5.76652 16.8724C5.77419 16.8808 5.78891 16.8889 5.82115 16.8889H7.75694C7.80086 16.881 7.82925 16.843 7.8233 16.8001L7.82239 16.7935H7.82285V13.5065V13.4584L7.87096 13.4585L8.04465 13.4589L8.04521 13.4589L8.13435 13.4601L8.13498 13.4601L8.13498 13.4601L8.1884 13.4616L8.18928 13.4616L8.18928 13.4616L8.23802 13.4638L8.23845 13.4638C8.26071 13.465 8.28294 13.4667 8.30513 13.4689L8.30481 13.4689L8.30072 13.5167L8.30549 13.469L5.80128 6.20221ZM5.80128 6.20221L5.94638 6.20193V6.20193M5.80128 6.20221L5.94638 6.20193M7.87085 13.5065H7.91885V13.5066L7.87085 13.5065ZM7.87085 13.5065L7.87074 13.5545H7.87085V13.5065ZM7.12088 6.12349L7.02058 6.12685L7.12088 6.12349ZM7.12088 6.12349C7.21086 6.12004 7.3031 6.11773 7.39758 6.11581L7.12088 6.12349ZM5.94638 6.20193L5.9467 6.20192M5.94638 6.20193L5.9467 6.20192M5.9467 6.20192L6.05899 6.20096L6.05899 6.20097M5.9467 6.20192L6.05899 6.20097M6.05899 6.20097L6.05951 6.20096M6.05899 6.20097L6.05951 6.20096M6.05951 6.20096L6.13872 6.19942V6.19942M6.05951 6.20096L6.13872 6.19942M6.13872 6.19942L6.13904 6.19941M6.13872 6.19942L6.13904 6.19941M6.13904 6.19941L6.22341 6.19721L6.22341 6.19721M6.13904 6.19941L6.22341 6.19721M6.22341 6.19721L6.22388 6.19719M6.22341 6.19721L6.22388 6.19719M6.22388 6.19719L6.31452 6.19393L6.31479 6.19392M6.22388 6.19719L6.31479 6.19392M6.31479 6.19392L6.36307 6.1919L6.36311 6.1919M6.31479 6.19392L6.36311 6.1919M6.36311 6.1919C6.45259 6.18808 6.54359 6.18569 6.63674 6.18367C6.63674 6.18367 6.63674 6.18367 6.63674 6.18367L6.9231 6.17753L6.9232 6.17753M6.36311 6.1919L6.9232 6.17753M6.9232 6.17753C6.95581 6.17676 6.98885 6.17589 7.02211 6.17483L7.02219 6.17483M6.9232 6.17753L7.02219 6.17483M7.02219 6.17483L7.12249 6.17147L7.12272 6.17146M7.02219 6.17483L7.12272 6.17146M7.12272 6.17146C7.21229 6.16802 7.3042 6.16572 7.39856 6.1638L7.68838 6.15853L7.68858 6.15852M7.12272 6.17146L7.68858 6.15852M7.68858 6.15852L7.88927 6.15401L7.88963 6.154M7.68858 6.15852L7.88963 6.154M7.88963 6.154L7.99227 6.15093L7.99239 6.15092M7.88963 6.154L7.99239 6.15092M7.99239 6.15092C8.19834 6.14423 8.40002 6.14192 8.60048 6.14116L8.90062 6.14077C8.90063 6.14077 8.90064 6.14077 8.90065 6.14077C9.71686 6.14078 10.3904 6.2427 10.9431 6.45496L10.9431 6.45498M7.99239 6.15092L10.9431 6.45498M10.9431 6.45498L10.9446 6.45549M10.9431 6.45498L10.9446 6.45549M10.9446 6.45549C11.4395 6.62764 11.8909 6.9105 12.266 7.28362M10.9446 6.45549L12.266 7.28362M14.6428 8.77242L14.6411 8.77108L14.6394 8.77144C14.6186 8.7757 14.6012 8.79892 14.6069 8.8278L14.6079 8.83295L14.6076 8.83298C14.6084 8.84273 14.6092 8.85246 14.6101 8.86218C14.6291 9.08666 14.6476 9.30471 14.6477 9.53252C14.6502 9.59904 14.6521 9.6655 14.6537 9.73195L14.6537 9.73212L14.6617 10.131L14.6617 10.1315L14.6677 10.3303C14.6677 10.3304 14.6677 10.3304 14.6677 10.3305C14.6777 10.5975 14.6777 10.8542 14.6777 11.0997V11.1001V16.8109C14.6854 16.8636 14.7297 16.8962 14.7836 16.8893L14.7897 16.8885V16.8889H16.7593C16.7981 16.8889 16.8146 16.88 16.8228 16.8711C16.8319 16.8612 16.8414 16.8401 16.8414 16.7935V11.5711V11.5534L16.8529 11.5399C16.9982 11.3698 17.1842 11.2433 17.3783 11.1491L17.3794 11.1486L17.3794 11.1486C17.6524 11.0243 17.9357 10.9311 18.2289 10.8689C18.229 10.8689 18.2291 10.8689 18.2292 10.8689L18.2989 10.8532L18.2994 10.8531C18.6324 10.7822 18.9806 10.7557 19.3196 10.7654M14.6428 8.77242L19.319 10.8134M14.6428 8.77242H14.6597H16.4094C16.4802 8.77242 16.5412 8.82027 16.569 8.89008L16.5742 8.90449L16.5743 8.9048C16.603 8.9832 16.6221 9.0613 16.6317 9.14942L16.6315 9.14944L16.6323 9.15341C16.6522 9.2555 16.6718 9.36614 16.6815 9.4661C16.6816 9.46618 16.6816 9.46626 16.6816 9.46634L16.6899 9.56449L16.7378 9.56077L16.69 9.56485L16.6899 9.56463C16.6964 9.64847 16.7014 9.73704 16.7014 9.83034V9.96257L16.7862 9.86113C17.0689 9.52313 17.4078 9.23924 17.7872 9.02263L17.7871 9.02273L17.7636 8.98084M14.6428 8.77242L16.7969 9.7747C17.0734 9.45671 17.4001 9.18832 17.7636 8.98084M19.3196 10.7654C19.3199 10.7654 19.3201 10.7654 19.3203 10.7654L19.319 10.8134M19.3196 10.7654C19.3194 10.7654 19.3192 10.7654 19.319 10.7654V10.8134M19.3196 10.7654C19.3719 10.7653 19.3994 10.7575 19.4131 10.7481C19.4225 10.7417 19.431 10.731 19.431 10.7008V8.66663M19.319 10.8134C19.4289 10.8134 19.479 10.7827 19.479 10.7008V8.66298M19.431 8.66663C19.4311 8.66762 19.4313 8.66862 19.4314 8.66963L19.479 8.66298M19.431 8.66663C19.4229 8.6192 19.385 8.59213 19.3459 8.59787L19.3389 8.59889V8.59837C18.8169 8.59837 18.2954 8.72947 17.8433 8.99127L17.8426 8.99163L17.7874 9.02252M19.431 8.66663V8.66298H19.479M19.479 8.66298L17.7874 9.02252M17.7874 9.02252L17.7636 8.98084M17.7874 9.02252L19.3389 8.55037C18.809 8.55037 18.2792 8.68343 17.8192 8.94973L17.7636 8.98084M12.266 7.28362C12.5832 7.60961 12.8283 8.00167 12.9848 8.43329C13.133 8.85854 13.2119 9.29347 13.2119 9.74845C13.2119 10.6218 13.0137 11.3385 12.6207 11.9021C12.2264 12.4674 11.6744 12.8915 11.0334 13.1339C10.3833 13.3787 9.66682 13.4726 8.88225 13.4786H8.5969H8.59664L8.48654 13.4775L8.48587 13.4775L8.41567 13.4758L8.37456 13.474L12.266 7.28362ZM8.33788 13.4717L8.3373 13.4717L8.33437 13.5196L8.33846 13.4718L8.33788 13.4717ZM7.87451 8.08288L7.83279 8.08839V8.13047V11.5711V11.6157L7.87727 11.619L7.99458 11.6276C7.9946 11.6276 7.99462 11.6276 7.99464 11.6276C8.08636 11.6348 8.17829 11.6388 8.27028 11.6397H8.27072H8.8007C9.19532 11.6397 9.59006 11.5775 9.96467 11.4532C10.2945 11.358 10.5818 11.1577 10.8068 10.8958L10.8068 10.8958L10.8075 10.895C11.0267 10.6278 11.1282 10.2675 11.1283 9.8106C11.1379 9.48195 11.0559 9.15723 10.8918 8.87439L10.8919 8.87437L10.8908 8.87264C10.7231 8.60997 10.4885 8.40449 10.2051 8.28514L10.2051 8.28514L10.2045 8.2849L10.1689 8.27046C10.1688 8.27043 10.1688 8.27041 10.1687 8.27038C9.79175 8.11392 9.38519 8.05168 8.97001 8.06202L8.73943 8.06231L8.73919 8.06231L8.63055 8.06298L8.63019 8.06299L8.52642 8.06442L8.52596 8.06443L8.42745 8.06674L8.42723 8.06674C8.37981 8.06807 8.33421 8.06987 8.2907 8.07223C8.26975 8.07117 8.24879 8.0703 8.22783 8.06963V8.06963L8.22737 8.06962L8.16747 8.06827L8.16747 8.06827L8.16696 8.06826L8.13837 8.06807L8.13802 8.06807L8.08496 8.06836V8.06835L8.08388 8.06838L8.0357 8.06972V8.06971L8.03498 8.06975L8.01267 8.07071L8.01267 8.0707L8.01193 8.07074L7.97096 8.07314L7.97096 8.07313L7.96994 8.07321L7.93395 8.07609L7.93395 8.07609L7.93325 8.07616L7.91703 8.07769L7.91703 8.07768L7.91592 8.07781L7.88752 8.08117L7.88752 8.08117L7.88688 8.08125L7.87451 8.08288Z" fill="#9999FF" stroke="#757575" stroke-width="0.096"/>
</svg>
