<svg width="200" height="200" viewBox="0 0 377 377" fill="none" xmlns="http://www.w3.org/2000/svg">
<path d="M163.296 49.8502C162.601 49.9551 161.967 49.7997 161.393 49.3838C160.818 48.9594 160.477 48.3956 160.371 47.6924C160.266 46.9977 160.426 46.3669 160.852 45.8C161.276 45.2247 161.836 44.8845 162.531 44.7796C163.225 44.6746 163.86 44.8344 164.436 45.2587C165.01 45.6746 165.349 46.2299 165.454 46.9246C165.524 47.3906 165.47 47.8364 165.292 48.2619C165.121 48.6777 164.862 49.0288 164.515 49.3151C164.168 49.6015 163.762 49.7798 163.296 49.8502Z" fill="#1877F9"/>
<path d="M104.673 59.883L110.323 70.1528L106.956 72.0062L97.4411 54.7096L100.672 52.9306L102.221 55.7458L102.435 55.6281C102.329 54.4932 102.547 53.4145 103.09 52.392C103.64 51.3653 104.564 50.4946 105.863 49.7797C107.041 49.1309 108.209 48.8104 109.368 48.8183C110.522 48.8186 111.609 49.1687 112.63 49.8685C113.65 50.5683 114.553 51.6314 115.338 53.0578L121.39 64.0595L118.024 65.9129L112.194 55.3166C111.505 54.0629 110.639 53.2629 109.598 52.9168C108.553 52.5631 107.46 52.7003 106.319 53.3285C105.538 53.7582 104.937 54.3094 104.515 54.982C104.1 55.6504 103.896 56.4082 103.902 57.2556C103.912 58.0913 104.169 58.9671 104.673 59.883Z" fill="#1877F9"/>
<path d="M70.2262 109.155L51.4727 100.689L54.061 97.677L67.5739 104.196L67.6996 104.05L59.2376 91.6529L61.8259 88.6409L75.2818 95.1276L75.4074 94.9814L66.9691 82.6558L69.5574 79.6438L80.747 96.912L78.1921 99.8851L64.7722 93.6327L64.5795 93.8569L72.7726 106.192L70.2262 109.155Z" fill="#1877F9"/>
<path d="M54.2929 145.478C53.6564 147.216 52.7027 148.587 51.4318 149.59C50.161 150.594 48.6784 151.191 46.9842 151.382C45.29 151.573 43.4855 151.318 41.5709 150.616C39.6482 149.911 38.0979 148.937 36.9202 147.693C35.7424 146.449 34.9926 145.034 34.6705 143.446C34.3485 141.859 34.5058 140.196 35.1423 138.459C35.7788 136.721 36.7325 135.35 38.0033 134.347C39.2742 133.343 40.7608 132.748 42.463 132.559C44.1653 132.371 45.9778 132.629 47.9005 133.334C49.8151 134.036 51.3573 135.007 52.527 136.248C53.6967 137.489 54.4426 138.903 54.7646 140.491C55.0866 142.078 54.9293 143.74 54.2929 145.478ZM51.2684 144.356C51.681 143.23 51.7251 142.187 51.4009 141.229C51.0767 140.27 50.4847 139.433 49.6248 138.716C48.7679 137.991 47.7442 137.411 46.5535 136.974C45.371 136.541 44.2186 136.324 43.0965 136.323C41.9693 136.312 40.9685 136.565 40.094 137.084C39.2195 137.603 38.576 138.426 38.1635 139.552C37.748 140.687 37.7049 141.739 38.0342 142.708C38.3665 143.669 38.9651 144.514 39.83 145.242C40.6899 145.958 41.7111 146.533 42.8937 146.967C44.0843 147.403 45.2392 147.626 46.3584 147.635C47.4805 147.635 48.4747 147.375 49.3411 146.853C50.2105 146.323 50.8529 145.49 51.2684 144.356Z" fill="#1877F9"/>
<path d="M47.8449 189.371C47.7764 190.963 47.3086 192.366 46.4417 193.581C45.5665 194.787 44.3561 195.712 42.8103 196.358C41.2564 196.994 39.4137 197.266 37.2822 197.175C35.1507 197.083 33.3426 196.649 31.858 195.873C30.3738 195.089 29.2562 194.055 28.5053 192.77C27.7544 191.486 27.413 190.052 27.4811 188.468C27.5338 187.244 27.7815 186.269 28.2245 185.542C28.6592 184.806 29.155 184.244 29.712 183.856C30.2694 183.46 30.7584 183.155 31.1793 182.941L31.1892 182.71L21.4177 182.29L21.5828 178.45L47.8799 179.582L47.7186 183.332L44.6498 183.2L44.636 183.521C45.0455 183.77 45.5105 184.124 46.031 184.584C46.5519 185.035 46.9973 185.646 47.3673 186.417C47.7372 187.188 47.8964 188.172 47.8449 189.371ZM44.607 188.382C44.6545 187.278 44.4036 186.332 43.8543 185.545C43.2967 184.749 42.5043 184.132 41.4768 183.693C40.4498 183.246 39.2429 182.993 37.8561 182.933C36.4865 182.874 35.2796 183.019 34.2354 183.369C33.1913 183.718 32.366 184.262 31.7597 184.999C31.1534 185.736 30.8261 186.665 30.7779 187.787C30.7282 188.943 30.9864 189.918 31.5525 190.715C32.1186 191.511 32.911 192.128 33.9299 192.567C34.9491 192.996 36.1093 193.239 37.4105 193.295C38.7287 193.352 39.9228 193.206 40.9927 192.858C42.0625 192.509 42.9222 191.963 43.5716 191.219C44.2129 190.466 44.558 189.521 44.607 188.382Z" fill="#1877F9"/>
<path d="M29.4581 238.332L54.5328 230.328L55.7006 233.989L30.626 241.994L29.4581 238.332Z" fill="#1877F9"/>
<path d="M37.0367 257.535L60.9223 246.476L62.5358 249.964L38.6502 261.022L37.0367 257.535Z" fill="#1877F9"/>
<path d="M80.1664 276.273C81.2815 277.75 81.9163 279.295 82.0707 280.907C82.2251 282.52 81.9236 284.09 81.1662 285.618C80.4089 287.146 79.2167 288.524 77.5896 289.754C75.9558 290.988 74.2973 291.764 72.6141 292.08C70.931 292.395 69.3354 292.259 67.8274 291.669C66.3195 291.079 65.0079 290.046 63.8928 288.569C62.7776 287.092 62.1429 285.547 61.9885 283.935C61.8341 282.323 62.139 280.75 62.9032 279.217C63.6674 277.684 64.8664 276.3 66.5003 275.065C68.1273 273.836 69.779 273.066 71.4553 272.755C73.1316 272.444 74.7238 272.584 76.2318 273.173C77.7397 273.763 79.0513 274.796 80.1664 276.273ZM77.5848 278.208C76.8621 277.25 76.0103 276.648 75.0294 276.401C74.0486 276.154 73.0241 276.198 71.9561 276.533C70.8829 276.86 69.8405 277.406 68.8287 278.171C67.8238 278.93 67.0171 279.781 66.4085 280.724C65.788 281.666 65.4588 282.645 65.4211 283.661C65.3833 284.678 65.7258 285.665 66.4486 286.622C67.1765 287.586 68.0369 288.192 69.0298 288.441C70.0175 288.683 71.0513 288.637 72.1313 288.304C73.1993 287.97 74.2358 287.423 75.2407 286.664C76.2525 285.899 77.0652 285.049 77.6789 284.113C78.2874 283.17 78.6072 282.193 78.6381 281.181C78.6638 280.163 78.3128 279.172 77.5848 278.208Z" fill="#1877F9"/>
<path d="M106.525 301.316L94.1677 316.711L91.2721 314.385L93.2351 311.939L93.0748 311.81C92.1292 312.414 91.1119 312.668 90.0231 312.574C88.9222 312.481 87.9208 312.072 87.0191 311.347C86.832 311.197 86.617 311.013 86.3739 310.796C86.1241 310.573 85.9338 310.393 85.8029 310.255L88.1038 307.388C88.1973 307.518 88.3815 307.727 88.6566 308.014C88.9263 308.308 89.2148 308.578 89.5221 308.825C90.2301 309.393 90.982 309.75 91.7778 309.895C92.5616 310.041 93.3256 309.979 94.0699 309.708C94.8089 309.445 95.4466 308.979 95.9829 308.311L103.529 298.909L106.525 301.316Z" fill="#1877F9"/>
<path d="M133.263 315.529C134.993 316.339 136.3 317.429 137.182 318.798C138.053 320.171 138.497 321.708 138.514 323.41C138.531 325.112 138.12 326.859 137.281 328.651C136.431 330.467 135.34 331.91 134.007 332.979C132.67 334.056 131.198 334.696 129.589 334.898C127.981 335.1 126.335 334.807 124.651 334.018C123.293 333.382 122.201 332.563 121.374 331.56C120.544 330.566 120.013 329.466 119.783 328.26C119.545 327.051 119.645 325.816 120.084 324.555L123.471 326.142C123.265 327.067 123.353 327.989 123.737 328.906C124.114 329.821 124.856 330.538 125.966 331.057C126.936 331.512 127.905 331.654 128.874 331.483C129.832 331.317 130.733 330.859 131.575 330.109C132.415 329.366 133.132 328.359 133.728 327.086C134.338 325.783 134.667 324.565 134.715 323.433C134.762 322.301 134.547 321.306 134.068 320.448C133.582 319.586 132.847 318.924 131.861 318.463C131.202 318.154 130.548 317.994 129.9 317.984C129.241 317.978 128.622 318.118 128.043 318.405C127.456 318.689 126.938 319.118 126.489 319.693L123.102 318.106C123.768 317.008 124.627 316.153 125.681 315.539C126.734 314.925 127.91 314.606 129.209 314.58C130.499 314.551 131.851 314.867 133.263 315.529Z" fill="#1877F9"/>
<path d="M160.623 339.312L164.159 339.263C164.232 339.726 164.392 340.181 164.64 340.63C164.88 341.077 165.242 341.47 165.725 341.809C166.208 342.148 166.843 342.381 167.629 342.509C168.703 342.684 169.639 342.588 170.436 342.223C171.232 341.867 171.691 341.312 171.813 340.559C171.919 339.908 171.763 339.344 171.346 338.869C170.928 338.393 170.203 337.941 169.17 337.512L166.191 336.298C164.465 335.593 163.232 334.737 162.493 333.731C161.754 332.725 161.496 331.533 161.72 330.155C161.91 328.988 162.417 328.002 163.242 327.199C164.057 326.403 165.107 325.844 166.392 325.524C167.668 325.202 169.093 325.169 170.666 325.424C172.848 325.779 174.552 326.534 175.78 327.688C177.006 328.851 177.635 330.321 177.667 332.097L173.911 332.059C173.837 331.066 173.486 330.267 172.855 329.661C172.223 329.063 171.336 328.671 170.194 328.486C168.951 328.284 167.915 328.38 167.087 328.775C166.258 329.178 165.782 329.756 165.66 330.509C165.561 331.118 165.706 331.667 166.095 332.155C166.476 332.643 167.115 333.068 168.011 333.43L171.191 334.69C172.942 335.4 174.18 336.278 174.904 337.325C175.62 338.37 175.865 339.586 175.639 340.973C175.452 342.123 174.968 343.077 174.185 343.835C173.402 344.594 172.405 345.122 171.193 345.419C169.98 345.726 168.642 345.76 167.179 345.522C165.073 345.179 163.49 344.453 162.429 343.343C161.366 342.242 160.764 340.898 160.623 339.312Z" fill="#1877F9"/>
<path d="M214.697 323.721C215.389 323.597 216.027 323.736 216.612 324.136C217.199 324.545 217.554 325.099 217.679 325.8C217.803 326.491 217.659 327.126 217.249 327.704C216.84 328.291 216.29 328.646 215.598 328.769C214.906 328.893 214.267 328.75 213.681 328.341C213.096 327.941 212.742 327.395 212.618 326.703C212.536 326.239 212.578 325.792 212.745 325.362C212.905 324.942 213.154 324.584 213.493 324.288C213.832 323.993 214.234 323.804 214.697 323.721Z" fill="#1877F9"/>
<path d="M273.033 312.122L267.111 302.007L270.427 300.064L280.401 317.1L277.219 318.965L275.595 316.192L275.385 316.316C275.521 317.447 275.332 318.531 274.817 319.568C274.294 320.609 273.394 321.504 272.115 322.254C270.954 322.934 269.795 323.285 268.637 323.309C267.483 323.339 266.387 323.018 265.348 322.346C264.309 321.674 263.378 320.635 262.555 319.23L256.211 308.394L259.526 306.452L265.637 316.888C266.36 318.123 267.247 318.899 268.297 319.218C269.351 319.543 270.44 319.377 271.564 318.718C272.333 318.268 272.919 317.701 273.323 317.017C273.72 316.338 273.903 315.575 273.874 314.728C273.842 313.893 273.562 313.024 273.033 312.122Z" fill="#1877F9"/>
<path d="M306.148 261.945L325.121 269.906L322.614 272.986L308.931 266.831L308.81 266.981L317.6 279.147L315.094 282.227L301.469 276.103L301.347 276.252L310.112 288.348L307.606 291.428L295.958 274.465L298.432 271.425L312.015 277.316L312.201 277.087L303.681 264.975L306.148 261.945Z" fill="#1877F9"/>
<path d="M321.103 225.209C321.692 223.455 322.609 222.059 323.853 221.022C325.096 219.985 326.562 219.348 328.251 219.112C329.939 218.876 331.75 219.083 333.683 219.733C335.624 220.386 337.199 221.318 338.41 222.53C339.621 223.742 340.408 225.137 340.772 226.715C341.137 228.293 341.024 229.96 340.434 231.714C339.844 233.468 338.928 234.864 337.684 235.901C336.441 236.938 334.97 237.573 333.274 237.807C331.577 238.041 329.758 237.831 327.818 237.178C325.885 236.527 324.317 235.598 323.115 234.389C321.912 233.179 321.129 231.786 320.764 230.208C320.4 228.63 320.513 226.963 321.103 225.209ZM324.156 226.25C323.774 227.387 323.757 228.43 324.107 229.38C324.457 230.329 325.071 231.15 325.95 231.844C326.826 232.545 327.865 233.098 329.067 233.503C330.26 233.905 331.418 234.091 332.54 234.061C333.667 234.043 334.661 233.762 335.521 233.22C336.381 232.678 337.003 231.838 337.385 230.701C337.77 229.556 337.785 228.503 337.43 227.543C337.072 226.591 336.451 225.763 335.567 225.059C334.688 224.365 333.652 223.818 332.458 223.416C331.256 223.012 330.096 222.82 328.977 222.841C327.855 222.871 326.868 223.158 326.016 223.703C325.161 224.256 324.541 225.105 324.156 226.25Z" fill="#1877F9"/>
<path d="M326.377 181.16C326.403 179.567 326.833 178.151 327.667 176.914C328.51 175.685 329.695 174.727 331.223 174.041C332.759 173.363 334.594 173.042 336.727 173.076C338.86 173.111 340.679 173.496 342.184 174.232C343.689 174.976 344.834 175.98 345.619 177.244C346.404 178.508 346.783 179.932 346.758 181.517C346.738 182.742 346.516 183.724 346.093 184.463C345.678 185.21 345.197 185.785 344.651 186.188C344.104 186.599 343.624 186.916 343.209 187.141L343.205 187.372L352.984 187.531L352.922 191.374L326.604 190.946L326.665 187.194L329.736 187.243L329.741 186.922C329.325 186.684 328.851 186.342 328.318 185.896C327.786 185.459 327.324 184.861 326.934 184.1C326.543 183.34 326.358 182.36 326.377 181.16ZM329.64 182.062C329.622 183.167 329.898 184.105 330.469 184.877C331.047 185.658 331.856 186.254 332.895 186.665C333.933 187.085 335.147 187.306 336.534 187.328C337.905 187.35 339.108 187.173 340.142 186.796C341.177 186.418 341.987 185.853 342.573 185.1C343.16 184.347 343.462 183.409 343.48 182.287C343.499 181.13 343.215 180.161 342.628 179.381C342.041 178.6 341.232 178.004 340.202 177.593C339.171 177.191 338.005 176.979 336.703 176.958C335.383 176.936 334.194 177.114 333.134 177.491C332.073 177.868 331.229 178.437 330.599 179.198C329.978 179.968 329.659 180.922 329.64 182.062Z" fill="#1877F9"/>
<path d="M343.447 131.723L318.596 140.396L317.331 136.768L342.182 128.095L343.447 131.723Z" fill="#1877F9"/>
<path d="M335.355 112.73L311.774 124.424L310.068 120.981L333.649 109.287L335.355 112.73Z" fill="#1877F9"/>
<path d="M291.745 95.1534C290.59 93.7068 289.915 92.1796 289.717 90.572C289.52 88.9644 289.779 87.3867 290.495 85.839C291.211 84.2913 292.366 82.8812 293.96 81.6088C295.56 80.331 297.197 79.5117 298.871 79.1508C300.545 78.7899 302.144 78.8839 303.667 79.433C305.19 79.982 306.529 80.9799 307.683 82.4265C308.838 83.8732 309.514 85.4004 309.711 87.008C309.909 88.6156 309.646 90.1959 308.923 91.749C308.2 93.3021 307.038 94.7175 305.438 95.9953C303.845 97.2677 302.214 98.0817 300.547 98.4372C298.879 98.7928 297.284 98.6961 295.761 98.147C294.238 97.598 292.899 96.6001 291.745 95.1534ZM294.274 93.1506C295.022 94.0883 295.889 94.6674 296.876 94.8879C297.863 95.1085 298.886 95.0373 299.945 94.6744C301.009 94.3182 302.037 93.7445 303.027 92.9532C304.012 92.1673 304.795 91.2949 305.378 90.3359C305.974 89.3782 306.276 88.3908 306.287 87.3737C306.298 86.3565 305.929 85.3791 305.181 84.4415C304.427 83.4971 303.551 82.914 302.552 82.692C301.558 82.4768 300.526 82.55 299.455 82.9116C298.396 83.2745 297.375 83.8489 296.391 84.6348C295.4 85.426 294.61 86.2978 294.022 87.2501C293.438 88.2091 293.145 89.1945 293.141 90.2063C293.143 91.2248 293.52 92.2062 294.274 93.1506Z" fill="#1877F9"/>
<path d="M264.724 70.8245L276.665 55.1046L279.622 57.3524L277.725 59.8496L277.889 59.9741C278.818 59.3458 279.828 59.0643 280.919 59.1295C282.022 59.1931 283.034 59.575 283.955 60.275C284.146 60.4202 284.366 60.5981 284.615 60.8088C284.87 61.0247 285.065 61.1999 285.2 61.3345L282.977 64.2615C282.88 64.134 282.69 63.9306 282.407 63.6511C282.13 63.3648 281.834 63.1024 281.52 62.8639C280.797 62.3142 280.036 61.9777 279.237 61.8543C278.449 61.7293 277.687 61.8119 276.95 62.102C276.219 62.3853 275.594 62.8681 275.076 63.5504L267.783 73.1502L264.724 70.8245Z" fill="#1877F9"/>
<path d="M237.615 57.332C235.863 56.5681 234.528 55.5137 233.61 54.1688C232.702 52.8195 232.217 51.2946 232.155 49.594C232.092 47.8934 232.456 46.136 233.247 44.3216C234.048 42.4836 235.101 41.0124 236.404 39.9079C237.712 38.7955 239.167 38.1168 240.769 37.8716C242.371 37.6264 244.025 37.8755 245.729 38.6189C247.103 39.2184 248.217 40.0081 249.07 40.988C249.927 41.96 250.487 43.0454 250.75 44.2443C251.02 45.4466 250.953 46.6839 250.548 47.9562L247.12 46.4608C247.301 45.5303 247.187 44.6115 246.779 43.7042C246.378 42.8003 245.617 42.1035 244.494 41.6136C243.512 41.1854 242.539 41.0695 241.575 41.2658C240.622 41.4578 239.734 41.9399 238.912 42.7121C238.092 43.4765 237.402 44.5028 236.841 45.791C236.265 47.1105 235.969 48.3368 235.952 49.4698C235.935 50.6027 236.177 51.5916 236.678 52.4365C237.187 53.2847 237.94 53.9264 238.937 54.3615C239.605 54.6527 240.263 54.7947 240.911 54.7876C241.57 54.7761 242.185 54.6191 242.756 54.3167C243.335 54.0177 243.841 53.5748 244.275 52.988L247.703 54.4833C247.067 55.5988 246.231 56.4773 245.194 57.1188C244.157 57.7603 242.99 58.1112 241.693 58.1716C240.403 58.2353 239.044 57.9555 237.615 57.332Z" fill="#1877F9"/>
<path d="M209.627 34.2904L206.093 34.4349C206.009 33.9739 205.836 33.5226 205.576 33.081C205.324 32.6406 204.952 32.2574 204.46 31.9315C203.968 31.6056 203.327 31.3892 202.538 31.2824C201.459 31.1366 200.527 31.2569 199.74 31.6433C198.954 32.0211 198.509 32.5879 198.407 33.3436C198.319 33.9974 198.49 34.5566 198.92 35.0211C199.35 35.4857 200.087 35.9182 201.131 36.3188L204.142 37.4523C205.886 38.1118 207.141 38.9343 207.907 39.9198C208.673 40.9053 208.962 42.0901 208.775 43.4741C208.617 44.6459 208.136 45.6443 207.333 46.4695C206.54 47.2873 205.505 47.8737 204.229 48.2286C202.962 48.5846 201.539 48.6559 199.96 48.4423C197.769 48.146 196.045 47.4373 194.787 46.3161C193.53 45.1864 192.862 43.7343 192.782 41.9596L196.538 41.897C196.638 42.8875 197.011 43.6772 197.658 44.2661C198.306 44.8466 199.203 45.2143 200.349 45.3693C201.597 45.5381 202.63 45.4141 203.447 44.9972C204.265 44.5718 204.725 43.9812 204.828 43.2255C204.91 42.6142 204.75 42.0695 204.348 41.5914C203.954 41.1145 203.305 40.7067 202.399 40.3681L199.186 39.1943C197.417 38.5314 196.156 37.6865 195.404 36.6597C194.661 35.634 194.384 34.4249 194.572 33.0324C194.728 31.8776 195.187 30.9108 195.949 30.132C196.712 29.3532 197.694 28.7988 198.898 28.4686C200.102 28.13 201.439 28.0601 202.907 28.2587C205.022 28.5446 206.624 29.2282 207.714 30.3095C208.806 31.3822 209.443 32.7092 209.627 34.2904Z" fill="#1877F9"/>
<rect x="152.308" y="125.164" width="69.368" height="129.688" rx="34.684" stroke="#1877F9" stroke-width="9.048"/>
<circle cx="186.992" cy="220.168" r="18.096" fill="#1877F9"/>
</svg>
