<svg width="58" height="58" viewBox="0 0 58 58" fill="none" xmlns="http://www.w3.org/2000/svg">
<rect x="1" y="1" width="56" height="56" rx="28" stroke="#1877F9"/>
<path fill-rule="evenodd" clip-rule="evenodd" d="M32.2929 33.7071C32.6834 34.0976 33.3166 34.0976 33.7071 33.7071C34.0976 33.3166 34.0976 32.6834 33.7071 32.2929L30.4142 29L33.7071 25.7071C34.0976 25.3166 34.0976 24.6834 33.7071 24.2929C33.3166 23.9024 32.6834 23.9024 32.2929 24.2929L29 27.5858L25.7071 24.2929C25.3166 23.9024 24.6834 23.9024 24.2929 24.2929C23.9024 24.6834 23.9024 25.3166 24.2929 25.7071L27.5858 29L24.2929 32.2929C23.9024 32.6834 23.9024 33.3166 24.2929 33.7071C24.6834 34.0976 25.3166 34.0976 25.7071 33.7071L29 30.4142L32.2929 33.7071Z" fill="black"/>
</svg>
