<svg width="41" height="40" viewBox="0 0 41 40" fill="none" xmlns="http://www.w3.org/2000/svg">
<circle cx="20.8379" cy="20" r="20" fill="#151515"/>
<path d="M22.4035 8.3335C23.7535 8.3371 24.4386 8.3443 25.0302 8.36109L25.263 8.36949C25.5318 8.37909 25.797 8.39109 26.1173 8.40549C27.3941 8.46549 28.2652 8.66708 29.0296 8.96346C29.8216 9.26825 30.4887 9.68103 31.1559 10.347C31.7661 10.9468 32.2382 11.6724 32.5394 12.4733C32.8358 13.2376 33.0374 14.1088 33.0974 15.3867C33.1118 15.7059 33.1238 15.9711 33.1334 16.2411L33.1406 16.4739C33.1586 17.0643 33.1658 17.7494 33.1682 19.0993L33.1694 19.9945V21.5664C33.1723 22.4417 33.1631 23.3169 33.1418 24.1919L33.1346 24.4247C33.125 24.6947 33.113 24.9598 33.0986 25.279C33.0386 26.557 32.8346 27.4269 32.5394 28.1925C32.239 28.9938 31.7668 29.7195 31.1559 30.3188C30.5559 30.9287 29.8303 31.4008 29.0296 31.7023C28.2652 31.9987 27.3941 32.2003 26.1173 32.2603C25.8326 32.2737 25.5478 32.2857 25.263 32.2963L25.0302 32.3035C24.4386 32.3203 23.7535 32.3287 22.4035 32.3311L21.5084 32.3323H19.9377C19.062 32.3353 18.1864 32.3261 17.311 32.3047L17.0782 32.2975C16.7934 32.2867 16.5086 32.2743 16.2239 32.2603C14.9471 32.2003 14.076 31.9987 13.3104 31.7023C12.5096 31.4016 11.7843 30.9294 11.1853 30.3188C10.5746 29.7191 10.102 28.9935 9.80058 28.1925C9.5042 27.4281 9.30261 26.557 9.24261 25.279C9.22924 24.9943 9.21724 24.7095 9.20661 24.4247L9.20061 24.1919C9.1785 23.3169 9.1685 22.4417 9.17061 21.5664V19.0993C9.16727 18.2241 9.17607 17.3489 9.19701 16.4739L9.20541 16.2411C9.21501 15.9711 9.22701 15.7059 9.24141 15.3867C9.30141 14.1088 9.503 13.2388 9.79938 12.4733C10.1007 11.6716 10.5742 10.9458 11.1865 10.347C11.7854 9.73679 12.5102 9.26463 13.3104 8.96346C14.076 8.66708 14.9459 8.46549 16.2239 8.40549C16.543 8.39109 16.8094 8.37909 17.0782 8.36949L17.311 8.36229C18.186 8.34097 19.0612 8.33177 19.9365 8.3347L22.4035 8.3335ZM21.17 14.3332C19.5788 14.3332 18.0527 14.9653 16.9276 16.0905C15.8024 17.2156 15.1703 18.7417 15.1703 20.3329C15.1703 21.9241 15.8024 23.4501 16.9276 24.5753C18.0527 25.7005 19.5788 26.3326 21.17 26.3326C22.7612 26.3326 24.2873 25.7005 25.4124 24.5753C26.5376 23.4501 27.1697 21.9241 27.1697 20.3329C27.1697 18.7417 26.5376 17.2156 25.4124 16.0905C24.2873 14.9653 22.7612 14.3332 21.17 14.3332ZM21.17 16.7331C21.6427 16.733 22.1109 16.826 22.5476 17.0069C22.9844 17.1877 23.3813 17.4528 23.7156 17.787C24.05 18.1212 24.3152 18.518 24.4962 18.9547C24.6771 19.3915 24.7703 19.8595 24.7704 20.3323C24.7705 20.805 24.6775 21.2731 24.4966 21.7099C24.3158 22.1467 24.0507 22.5436 23.7165 22.8779C23.3823 23.2122 22.9855 23.4775 22.5487 23.6585C22.112 23.8394 21.6439 23.9326 21.1712 23.9327C20.2165 23.9327 19.3008 23.5534 18.6257 22.8783C17.9506 22.2032 17.5714 21.2876 17.5714 20.3329C17.5714 19.3782 17.9506 18.4625 18.6257 17.7874C19.3008 17.1123 20.2165 16.7331 21.1712 16.7331M27.4709 12.5333C27.0731 12.5333 26.6916 12.6913 26.4103 12.9726C26.129 13.2539 25.971 13.6354 25.971 14.0332C25.971 14.431 26.129 14.8125 26.4103 15.0938C26.6916 15.3751 27.0731 15.5331 27.4709 15.5331C27.8687 15.5331 28.2502 15.3751 28.5315 15.0938C28.8128 14.8125 28.9708 14.431 28.9708 14.0332C28.9708 13.6354 28.8128 13.2539 28.5315 12.9726C28.2502 12.6913 27.8687 12.5333 27.4709 12.5333Z" fill="white"/>
</svg>
