<svg width="41" height="40" viewBox="0 0 41 40" fill="none" xmlns="http://www.w3.org/2000/svg">
<circle cx="20.8379" cy="20" r="20" fill="#151515"/>
<path d="M13.8746 11.5196C13.8743 12.1875 13.6086 12.828 13.1361 13.3C12.6636 13.7721 12.0229 14.0371 11.355 14.0367C10.6871 14.0364 10.0467 13.7707 9.57461 13.2982C9.10256 12.8257 8.83756 12.185 8.83789 11.5171C8.83822 10.8492 9.10387 10.2088 9.57639 9.73672C10.0489 9.26467 10.6896 8.99967 11.3575 9C12.0254 9.00033 12.6658 9.26598 13.1379 9.7385C13.6099 10.211 13.875 10.8517 13.8746 11.5196ZM13.9502 15.9016H8.91344V31.6665H13.9502V15.9016ZM21.9082 15.9016H16.8967V31.6665H21.8578V23.3937C21.8578 18.7851 27.8641 18.357 27.8641 23.3937V31.6665H32.8379V21.6812C32.8379 13.9121 23.9481 14.2017 21.8578 18.017L21.9082 15.9016Z" fill="#F1F1F1"/>
</svg>
