<svg width="41" height="40" viewBox="0 0 41 40" fill="none" xmlns="http://www.w3.org/2000/svg">
<circle cx="20.8379" cy="20" r="20" fill="#151515"/>
<path d="M32.8379 12.2945C31.9545 12.696 31.0023 12.9598 30.0157 13.086C31.0253 12.478 31.8054 11.5143 32.1725 10.3556C31.2203 10.9293 30.1649 11.3308 29.052 11.5602C28.1457 10.5736 26.8723 10 25.4268 10C22.7308 10 20.5281 12.2027 20.5281 14.9216C20.5281 15.3117 20.574 15.6902 20.6543 16.0459C16.5702 15.8394 12.9335 13.8776 10.5128 10.9063C10.0884 11.6291 9.84745 12.478 9.84745 13.3728C9.84745 15.0822 10.7079 16.5966 12.0387 17.457C11.2241 17.457 10.467 17.2275 9.80156 16.8834V16.9178C9.80156 19.304 11.4995 21.3002 13.748 21.7476C13.0261 21.9452 12.2682 21.9727 11.5339 21.8279C11.8455 22.8059 12.4557 23.6617 13.2788 24.2749C14.1019 24.8881 15.0965 25.2279 16.1228 25.2467C14.3832 26.6238 12.2268 27.3682 10.0081 27.3576C9.61801 27.3576 9.22795 27.3346 8.83789 27.2887C11.0176 28.6883 13.6104 29.5029 16.3866 29.5029C25.4268 29.5029 30.3943 22 30.3943 15.4952C30.3943 15.2772 30.3943 15.0707 30.3828 14.8528C31.3465 14.1644 32.1725 13.2925 32.8379 12.2945Z" fill="#F1F1F1"/>
</svg>
