<?xml version="1.0" standalone="no"?>
<!DOCTYPE svg PUBLIC "-//W3C//DTD SVG 20010904//EN"
 "http://www.w3.org/TR/2001/REC-SVG-20010904/DTD/svg10.dtd">
<svg version="1.0" xmlns="http://www.w3.org/2000/svg"
 width="300.000000pt" height="300.000000pt" viewBox="0 0 300.000000 300.000000"
 preserveAspectRatio="xMidYMid meet">
<metadata>
Created by potrace 1.14, written by Peter Selinger 2001-2017
</metadata>
<g transform="translate(0.000000,300.000000) scale(0.100000,-0.100000)"
fill="#000000" stroke="none">
<path d="M341 2829 c-68 -8 -88 -16 -132 -51 -9 -7 -37 -63 -63 -124 l-47
-112 0 -1127 1 -1128 35 -82 c20 -48 38 -108 41 -144 l7 -61 1338 0 1339 0 0
41 c0 70 42 126 102 135 l38 7 0 1232 0 1233 -36 6 c-26 5 -55 27 -113 85 -68
69 -83 80 -130 90 -63 13 -2263 13 -2380 0z m811 -359 c20 -6 48 -24 62 -41
l26 -31 0 -354 c0 -394 1 -403 64 -429 38 -16 73 -12 126 15 59 30 106 86 154
185 24 50 60 105 80 125 21 19 58 76 83 125 25 50 70 122 100 162 29 39 67 98
83 131 32 67 67 97 131 111 107 25 217 -1 247 -59 27 -53 -7 -141 -94 -241
-31 -35 -72 -95 -91 -134 -19 -38 -57 -92 -83 -120 -30 -31 -65 -84 -92 -139
-24 -50 -64 -113 -89 -140 -70 -78 -82 -107 -77 -190 6 -86 25 -126 89 -188
26 -26 61 -73 78 -105 16 -32 50 -78 76 -103 26 -25 67 -80 92 -122 24 -43 76
-112 113 -154 79 -86 97 -128 75 -180 -7 -18 -25 -40 -39 -49 -56 -37 -216
-28 -277 16 -16 11 -38 38 -49 59 -11 21 -44 65 -73 97 -30 32 -80 101 -112
153 -32 52 -80 119 -107 149 -27 30 -60 75 -73 100 -31 61 -68 94 -138 125
-79 35 -118 34 -151 -4 -14 -17 -30 -47 -36 -68 -5 -21 -10 -151 -10 -304 l0
-266 -25 -31 c-35 -40 -84 -55 -162 -48 -80 8 -129 31 -150 71 -15 27 -17 63
-14 274 3 268 -2 298 -52 334 -25 18 -47 23 -121 25 -114 5 -126 7 -153 33
-34 31 -46 89 -33 163 22 118 47 138 182 147 85 5 101 9 124 30 54 50 56 63
53 434 -3 371 -1 386 54 415 55 29 146 38 209 21z"/>
</g>
</svg>
