<svg width="37" height="15" viewBox="0 0 37 15" fill="none" xmlns="http://www.w3.org/2000/svg">
<path id="Arrow 1" d="M1 6.5C0.447715 6.5 -4.82823e-08 6.94772 0 7.5C4.82823e-08 8.05228 0.447715 8.5 1 8.5L1 6.5ZM36.7071 8.2071C37.0976 7.81658 37.0976 7.18341 36.7071 6.79289L30.3431 0.42893C29.9526 0.0384053 29.3195 0.0384053 28.9289 0.42893C28.5384 0.819454 28.5384 1.45262 28.9289 1.84314L34.5858 7.5L28.9289 13.1569C28.5384 13.5474 28.5384 14.1805 28.9289 14.5711C29.3195 14.9616 29.9526 14.9616 30.3431 14.5711L36.7071 8.2071ZM1 8.5L36 8.5L36 6.5L1 6.5L1 8.5Z" fill="black"/>
</svg>
