<svg width="27" height="28" viewBox="0 0 27 28" fill="none" xmlns="http://www.w3.org/2000/svg">
<path id="Vector" d="M23.7857 13.4987H21.8571V8.35589C21.8571 7.6739 21.5862 7.01985 21.104 6.53761C20.6218 6.05538 19.9677 5.78446 19.2857 5.78446H14.1429V3.85589C14.1429 3.00341 13.8042 2.18584 13.2014 1.58304C12.5986 0.980249 11.7811 0.641602 10.9286 0.641602C10.0761 0.641602 9.25852 0.980249 8.65573 1.58304C8.05293 2.18584 7.71429 3.00341 7.71429 3.85589V5.78446H2.57143C1.88944 5.78446 1.23539 6.05538 0.753154 6.53761C0.270917 7.01985 0 7.6739 0 8.35589V13.2416H1.92857C3.85714 13.2416 5.4 14.7845 5.4 16.713C5.4 18.6416 3.85714 20.1845 1.92857 20.1845H0V25.0702C0 25.7522 0.270917 26.4062 0.753154 26.8884C1.23539 27.3707 1.88944 27.6416 2.57143 27.6416H7.45714V25.713C7.45714 23.7845 9 22.2416 10.9286 22.2416C12.8571 22.2416 14.4 23.7845 14.4 25.713V27.6416H19.2857C19.9677 27.6416 20.6218 27.3707 21.104 26.8884C21.5862 26.4062 21.8571 25.7522 21.8571 25.0702V19.9273H23.7857C24.6382 19.9273 25.4558 19.5887 26.0586 18.9859C26.6614 18.3831 27 17.5655 27 16.713C27 15.8605 26.6614 15.043 26.0586 14.4402C25.4558 13.8374 24.6382 13.4987 23.7857 13.4987Z" fill="#1877F9"/>
</svg>
