<svg width="41" height="41" viewBox="0 0 41 41" fill="none" xmlns="http://www.w3.org/2000/svg">
<path id="Vector" d="M38.9531 3.14899C38.9199 3.09004 38.8843 3.03164 38.8483 2.97278C38.6082 2.58335 38.299 2.19565 37.9157 1.81243C33.827 -2.2758 29.1752 2.82064 29.9182 4.98047C30.0662 5.40993 28.28 7.49281 26.4289 7.55598L19.5078 0.632969L12.6182 7.52203C10.9339 8.01099 9.36815 5.80789 9.68501 3.87917C9.93114 2.38427 5.85454 -1.06579 2.36841 2.42039C-1.11778 5.90629 3.22787 9.87159 5.06948 9.23814C5.52322 9.08158 8.27453 10.3454 7.71948 12.4186L0.817996 19.3209L8.356 26.8571C10.8029 28.5007 11.4025 25.6921 11.0899 23.7873C10.8415 22.2812 14.9475 18.8054 18.4594 22.3174C18.7887 22.6465 19.0474 22.9818 19.2464 23.3154C21.1712 26.5396 17.4182 29.765 15.7372 29.1864C15.2717 29.0262 11.7749 30.0843 13.5797 32.0757L13.935 32.4216C13.8683 32.364 13.8065 32.3068 13.7487 32.2505L21.5209 40.0241L28.9743 32.5729C29.7397 30.6394 27.4623 29.0695 25.5751 29.3808C24.068 29.6292 21.3905 26.5383 24.9018 23.0262C28.413 19.5143 31.1067 22.8138 30.7712 24.7469C30.4855 26.3912 32.1527 29.2614 34.9557 26.5196L33.792 27.7556L40.2104 21.3363L31.084 12.2111C30.8858 10.3431 32.3674 8.78199 34.0742 9.40532C37.1154 10.5161 41.0435 6.85475 38.9527 3.14901L38.9531 3.14899ZM13.5799 32.0757L13.3221 31.8258L13.7355 32.2386C13.6798 32.1839 13.6282 32.129 13.5799 32.0757ZM35.3804 26.0703C35.2454 26.2248 35.1046 26.3743 34.9584 26.5183L35.3804 26.0703Z" fill="#1877F9"/>
</svg>
