<svg width="517" height="140" viewBox="0 0 517 140" fill="none" xmlns="http://www.w3.org/2000/svg">
<path d="M233.481 61.5127C240.636 55.6907 248.927 51.4242 257.823 48.9854M293.477 48.9414C302.44 51.3762 310.792 55.6649 317.994 61.5303M275.5 74.4273L275.738 4M211.992 40.6838C225.09 29.4019 240.975 21.841 257.99 18.7897M293.97 18.9658C310.628 22.1266 326.162 29.6169 339.008 40.6838M254.671 82.412C256.088 81.426 257.559 80.5545 259.073 79.7886M291.698 79.6477C293.309 80.44 294.876 81.3644 296.391 82.412" stroke="black" stroke-width="7" stroke-linecap="round" stroke-linejoin="round"/>
<path d="M275.508 109.642C280.37 109.642 284.312 105.7 284.312 100.838C284.312 95.9763 280.37 92.0349 275.508 92.0349C270.647 92.0349 266.705 95.9763 266.705 100.838C266.705 105.7 270.647 109.642 275.508 109.642Z" fill="black" stroke="black" stroke-width="7" stroke-linecap="round" stroke-linejoin="round"/>
<path d="M419.5 107.642H418V103.642C418 103.111 417.789 102.602 417.414 102.227C417.039 101.852 416.53 101.642 416 101.642H412V100.142C412 99.4786 411.737 98.8427 411.268 98.3738C410.799 97.905 410.163 97.6416 409.5 97.6416C408.837 97.6416 408.201 97.905 407.732 98.3738C407.263 98.8427 407 99.4786 407 100.142V101.642H403C402.47 101.642 401.961 101.852 401.586 102.227C401.211 102.602 401 103.111 401 103.642V107.442H402.5C404 107.442 405.2 108.642 405.2 110.142C405.2 111.642 404 112.842 402.5 112.842H401V116.642C401 117.172 401.211 117.681 401.586 118.056C401.961 118.431 402.47 118.642 403 118.642H406.8V117.142C406.8 115.642 408 114.442 409.5 114.442C411 114.442 412.2 115.642 412.2 117.142V118.642H416C416.53 118.642 417.039 118.431 417.414 118.056C417.789 117.681 418 117.172 418 116.642V112.642H419.5C420.163 112.642 420.799 112.378 421.268 111.909C421.737 111.441 422 110.805 422 110.142C422 109.479 421.737 108.843 421.268 108.374C420.799 107.905 420.163 107.642 419.5 107.642Z" fill="#DE0000"/>
<path d="M112.786 51.4987H110.857V46.3559C110.857 45.6739 110.586 45.0198 110.104 44.5376C109.622 44.0554 108.968 43.7845 108.286 43.7845H103.143V41.8559C103.143 41.0034 102.804 40.1858 102.201 39.583C101.599 38.9802 100.781 38.6416 99.9286 38.6416C99.0761 38.6416 98.2585 38.9802 97.6557 39.583C97.0529 40.1858 96.7143 41.0034 96.7143 41.8559V43.7845H91.5714C90.8894 43.7845 90.2354 44.0554 89.7532 44.5376C89.2709 45.0198 89 45.6739 89 46.3559V51.2416H90.9286C92.8571 51.2416 94.4 52.7845 94.4 54.713C94.4 56.6416 92.8571 58.1845 90.9286 58.1845H89V63.0702C89 63.7522 89.2709 64.4062 89.7532 64.8884C90.2354 65.3707 90.8894 65.6416 91.5714 65.6416H96.4571V63.713C96.4571 61.7845 98 60.2416 99.9286 60.2416C101.857 60.2416 103.4 61.7845 103.4 63.713V65.6416H108.286C108.968 65.6416 109.622 65.3707 110.104 64.8884C110.586 64.4062 110.857 63.7522 110.857 63.0702V57.9273H112.786C113.638 57.9273 114.456 57.5887 115.059 56.9859C115.661 56.3831 116 55.5655 116 54.713C116 53.8605 115.661 53.043 115.059 52.4402C114.456 51.8374 113.638 51.4987 112.786 51.4987Z" fill="#1877F9"/>
<path d="M20.0882 98.0309C20.0205 98.0302 19.9522 98.0318 19.8832 98.0336C19.4259 98.0468 18.9355 98.1208 18.412 98.2611C12.8271 99.7579 14.9149 106.335 17.1569 106.771C17.6028 106.858 18.5135 109.446 17.6426 111.081L8.18659 113.613L10.7079 123.024C10.2892 124.727 7.59838 124.982 6.08649 123.743C4.91493 122.782 -0.111198 124.588 1.16485 129.35C2.44063 134.112 8.04751 132.331 8.41974 130.42C8.51102 129.948 10.9812 128.198 12.4991 129.715L15.0259 139.143L25.3215 136.383C27.9683 135.086 25.8358 133.162 24.0299 132.48C22.6014 131.942 21.6442 126.649 26.4417 125.363C26.8913 125.243 27.311 125.186 27.6995 125.181C31.4541 125.126 32.3709 129.989 31.0293 131.155C30.6578 131.478 29.8257 135.036 32.4528 134.468L32.93 134.334C32.8467 134.363 32.7663 134.387 32.6886 134.409L43.3069 131.565L40.5807 121.385C39.2889 119.755 36.7906 120.943 36.1166 122.732C35.5782 124.162 31.5626 124.935 30.2767 120.138C28.9909 115.342 33.1952 114.659 34.7015 115.916C35.9827 116.985 39.302 116.976 38.329 113.178L38.8176 114.804L36.4675 106.036L24.0017 109.377C22.2848 108.615 21.6737 106.551 23.0669 105.384C25.5494 103.306 24.3427 98.0735 20.088 98.0313L20.0882 98.0309ZM32.4528 134.468L32.1075 134.566L32.6717 134.415C32.5965 134.436 32.5232 134.453 32.4528 134.468ZM38.1523 112.586C38.2186 112.78 38.2776 112.977 38.3293 113.175L38.1523 112.586Z" fill="#DE0000"/>
<path d="M504.953 29.149C504.92 29.09 504.884 29.0316 504.848 28.9728C504.608 28.5833 504.299 28.1956 503.916 27.8124C499.827 23.7242 495.175 28.8206 495.918 30.9805C496.066 31.4099 494.28 33.4928 492.429 33.556L485.508 26.633L478.618 33.522C476.934 34.011 475.368 31.8079 475.685 29.8792C475.931 28.3843 471.855 24.9342 468.368 28.4204C464.882 31.9063 469.228 35.8716 471.069 35.2381C471.523 35.0816 474.275 36.3454 473.719 38.4186L466.818 45.3209L474.356 52.8571C476.803 54.5007 477.403 51.6921 477.09 49.7873C476.841 48.2812 480.948 44.8054 484.459 48.3174C484.789 48.6465 485.047 48.9818 485.246 49.3154C487.171 52.5396 483.418 55.765 481.737 55.1864C481.272 55.0262 477.775 56.0843 479.58 58.0757L479.935 58.4216C479.868 58.364 479.807 58.3068 479.749 58.2505L487.521 66.0241L494.974 58.5729C495.74 56.6394 493.462 55.0695 491.575 55.3808C490.068 55.6292 487.39 52.5383 490.902 49.0262C494.413 45.5143 497.107 48.8138 496.771 50.7469C496.485 52.3912 498.153 55.2614 500.956 52.5196L499.792 53.7556L506.21 47.3363L497.084 38.2111C496.886 36.3431 498.367 34.782 500.074 35.4053C503.115 36.5161 507.043 32.8548 504.953 29.149L504.953 29.149ZM479.58 58.0757L479.322 57.8258L479.736 58.2386C479.68 58.1839 479.628 58.129 479.58 58.0757ZM501.38 52.0703C501.245 52.2248 501.105 52.3743 500.958 52.5183L501.38 52.0703Z" fill="#1877F9"/>
</svg>
