<svg width="336" height="148" viewBox="0 0 336 148" fill="none" xmlns="http://www.w3.org/2000/svg">
<path d="M125.481 69.5127C132.636 63.6907 140.927 59.4242 149.823 56.9854M185.477 56.9414C194.44 59.3762 202.792 63.6649 209.994 69.5303M167.5 82.4273L167.738 12M103.992 48.6838C117.09 37.4019 132.975 29.841 149.99 26.7897M185.97 26.9658C202.628 30.1266 218.162 37.6169 231.008 48.6838M146.671 90.412C148.088 89.426 149.559 88.5545 151.073 87.7886M183.698 87.6477C185.309 88.44 186.876 89.3644 188.391 90.412" stroke="black" stroke-width="7" stroke-linecap="round" stroke-linejoin="round"/>
<path d="M167.508 117.642C172.37 117.642 176.312 113.7 176.312 108.838C176.312 103.976 172.37 100.035 167.508 100.035C162.647 100.035 158.705 103.976 158.705 108.838C158.705 113.7 162.647 117.642 167.508 117.642Z" fill="black" stroke="black" stroke-width="7" stroke-linecap="round" stroke-linejoin="round"/>
<path d="M268.5 105.642H267V101.642C267 101.111 266.789 100.602 266.414 100.227C266.039 99.8523 265.53 99.6416 265 99.6416H261V98.1416C261 97.4786 260.737 96.8427 260.268 96.3738C259.799 95.905 259.163 95.6416 258.5 95.6416C257.837 95.6416 257.201 95.905 256.732 96.3738C256.263 96.8427 256 97.4786 256 98.1416V99.6416H252C251.47 99.6416 250.961 99.8523 250.586 100.227C250.211 100.602 250 101.111 250 101.642V105.442H251.5C253 105.442 254.2 106.642 254.2 108.142C254.2 109.642 253 110.842 251.5 110.842H250V114.642C250 115.172 250.211 115.681 250.586 116.056C250.961 116.431 251.47 116.642 252 116.642H255.8V115.142C255.8 113.642 257 112.442 258.5 112.442C260 112.442 261.2 113.642 261.2 115.142V116.642H265C265.53 116.642 266.039 116.431 266.414 116.056C266.789 115.681 267 115.172 267 114.642V110.642H268.5C269.163 110.642 269.799 110.378 270.268 109.909C270.737 109.441 271 108.805 271 108.142C271 107.479 270.737 106.843 270.268 106.374C269.799 105.905 269.163 105.642 268.5 105.642Z" fill="#DE0000"/>
<path d="M323.953 17.149C323.92 17.09 323.884 17.0316 323.848 16.9728C323.608 16.5833 323.299 16.1956 322.916 15.8124C318.827 11.7242 314.175 16.8206 314.918 18.9805C315.066 19.4099 313.28 21.4928 311.429 21.556L304.508 14.633L297.618 21.522C295.934 22.011 294.368 19.8079 294.685 17.8792C294.931 16.3843 290.855 12.9342 287.368 16.4204C283.882 19.9063 288.228 23.8716 290.069 23.2381C290.523 23.0816 293.275 24.3454 292.719 26.4186L285.818 33.3209L293.356 40.8571C295.803 42.5007 296.403 39.6921 296.09 37.7873C295.841 36.2812 299.948 32.8054 303.459 36.3174C303.789 36.6465 304.047 36.9818 304.246 37.3154C306.171 40.5396 302.418 43.765 300.737 43.1864C300.272 43.0262 296.775 44.0843 298.58 46.0757L298.935 46.4216C298.868 46.364 298.807 46.3068 298.749 46.2505L306.521 54.0241L313.974 46.5729C314.74 44.6394 312.462 43.0695 310.575 43.3808C309.068 43.6292 306.39 40.5383 309.902 37.0262C313.413 33.5143 316.107 36.8138 315.771 38.7469C315.485 40.3912 317.153 43.2614 319.956 40.5196L318.792 41.7556L325.21 35.3363L316.084 26.2111C315.886 24.3431 317.367 22.782 319.074 23.4053C322.115 24.5161 326.043 20.8548 323.953 17.149L323.953 17.149ZM298.58 46.0757L298.322 45.8258L298.736 46.2386C298.68 46.1839 298.628 46.129 298.58 46.0757ZM320.38 40.0703C320.245 40.2248 320.105 40.3743 319.958 40.5183L320.38 40.0703Z" fill="#1877F9"/>
<path d="M62.7857 34.4987H60.8571V29.3559C60.8571 28.6739 60.5862 28.0198 60.104 27.5376C59.6218 27.0554 58.9677 26.7845 58.2857 26.7845H53.1429V24.8559C53.1429 24.0034 52.8042 23.1858 52.2014 22.583C51.5986 21.9802 50.7811 21.6416 49.9286 21.6416C49.0761 21.6416 48.2585 21.9802 47.6557 22.583C47.0529 23.1858 46.7143 24.0034 46.7143 24.8559V26.7845H41.5714C40.8894 26.7845 40.2354 27.0554 39.7532 27.5376C39.2709 28.0198 39 28.6739 39 29.3559V34.2416H40.9286C42.8571 34.2416 44.4 35.7845 44.4 37.713C44.4 39.6416 42.8571 41.1845 40.9286 41.1845H39V46.0702C39 46.7522 39.2709 47.4062 39.7532 47.8884C40.2354 48.3707 40.8894 48.6416 41.5714 48.6416H46.4571V46.713C46.4571 44.7845 48 43.2416 49.9286 43.2416C51.8571 43.2416 53.4 44.7845 53.4 46.713V48.6416H58.2857C58.9677 48.6416 59.6218 48.3707 60.104 47.8884C60.5862 47.4062 60.8571 46.7522 60.8571 46.0702V40.9273H62.7857C63.6382 40.9273 64.4558 40.5887 65.0586 39.9859C65.6614 39.3831 66 38.5655 66 37.713C66 36.8605 65.6614 36.043 65.0586 35.4402C64.4558 34.8374 63.6382 34.4987 62.7857 34.4987Z" fill="#1877F9"/>
<path d="M20.0882 106.031C20.0205 106.03 19.9522 106.032 19.8832 106.034C19.4259 106.047 18.9355 106.121 18.412 106.261C12.8271 107.758 14.9149 114.335 17.1569 114.771C17.6028 114.858 18.5135 117.446 17.6426 119.081L8.18659 121.613L10.7079 131.024C10.2892 132.727 7.59838 132.982 6.08649 131.743C4.91493 130.782 -0.111198 132.588 1.16485 137.35C2.44063 142.112 8.04751 140.331 8.41974 138.42C8.51102 137.948 10.9812 136.198 12.4991 137.715L15.0259 147.143L25.3215 144.383C27.9683 143.086 25.8358 141.162 24.0299 140.48C22.6014 139.942 21.6442 134.649 26.4417 133.363C26.8913 133.243 27.311 133.186 27.6995 133.181C31.4541 133.126 32.3709 137.989 31.0293 139.155C30.6578 139.478 29.8257 143.036 32.4528 142.468L32.93 142.334C32.8467 142.363 32.7663 142.387 32.6886 142.409L43.3069 139.565L40.5807 129.385C39.2889 127.755 36.7906 128.943 36.1166 130.732C35.5782 132.162 31.5626 132.935 30.2767 128.138C28.9909 123.342 33.1952 122.659 34.7015 123.916C35.9827 124.985 39.302 124.976 38.329 121.178L38.8176 122.804L36.4675 114.036L24.0017 117.377C22.2848 116.615 21.6737 114.551 23.0669 113.384C25.5494 111.306 24.3427 106.074 20.088 106.031L20.0882 106.031ZM32.4528 142.468L32.1075 142.566L32.6717 142.415C32.5965 142.436 32.5232 142.453 32.4528 142.468ZM38.1523 120.586C38.2186 120.78 38.2776 120.977 38.3293 121.175L38.1523 120.586Z" fill="#DE0000"/>
</svg>
