<svg width="135" height="114" viewBox="0 0 135 114" fill="none" xmlns="http://www.w3.org/2000/svg">
<g id="Group">
<path id="Vector" d="M25.4813 61.5127C32.6364 55.6907 40.9266 51.4242 49.8228 48.9854M85.4766 48.9414C94.4398 51.3762 102.792 55.6649 109.994 61.5303M67.5 74.4273L67.7377 4M3.99219 40.6838C17.0898 29.4019 32.9747 21.841 49.99 18.7897M85.9696 18.9658C102.628 22.1266 118.162 29.6169 131.008 40.6838M46.6711 82.412C48.0885 81.426 49.5587 80.5545 51.0728 79.7886M83.6983 79.6477C85.3093 80.44 86.8763 81.3644 88.3905 82.412" stroke="black" stroke-width="7" stroke-linecap="round" stroke-linejoin="round"/>
<path id="Vector_2" d="M67.5085 109.642C72.3705 109.642 76.3119 105.7 76.3119 100.838C76.3119 95.9763 72.3705 92.0349 67.5085 92.0349C62.6465 92.0349 58.7051 95.9763 58.7051 100.838C58.7051 105.7 62.6465 109.642 67.5085 109.642Z" fill="black" stroke="black" stroke-width="7" stroke-linecap="round" stroke-linejoin="round"/>
</g>
</svg>
