<svg width="44" height="42" viewBox="0 0 44 42" fill="none" xmlns="http://www.w3.org/2000/svg">
<path id="Vector" d="M20.0882 0.0309364C20.0205 0.0302177 19.9522 0.0318349 19.8832 0.0336318C19.4259 0.0468388 18.9355 0.12078 18.412 0.261116C12.8271 1.75791 14.9149 8.33465 17.1569 8.77112C17.6028 8.85773 18.5135 11.446 17.6426 13.0807L8.18659 15.6131L10.7079 25.0242C10.2892 26.7273 7.59838 26.9817 6.08649 25.743C4.91493 24.7824 -0.111198 26.5878 1.16485 31.3499C2.44063 36.112 8.04751 34.3312 8.41974 32.4196C8.51102 31.9484 10.9812 30.1976 12.4991 31.7149L15.0259 41.1429L25.3215 38.3829C27.9683 37.0856 25.8358 35.162 24.0299 34.4804C22.6014 33.9425 21.6442 28.6486 26.4417 27.3632C26.8913 27.2426 27.311 27.1862 27.6995 27.1806C31.4541 27.1258 32.3709 31.9887 31.0293 33.1553C30.6578 33.4782 29.8257 37.0356 32.4528 36.4683L32.93 36.3336C32.8467 36.3626 32.7663 36.3875 32.6886 36.4094L43.3069 33.5653L40.5807 23.3848C39.2889 21.7552 36.7906 22.9425 36.1166 24.7325C35.5782 26.1619 31.5626 26.9353 30.2767 22.1383C28.9909 17.3416 33.1952 16.6586 34.7015 17.9157C35.9827 18.9853 39.302 18.9765 38.329 15.1781L38.8176 16.8039L36.4675 8.03574L24.0017 11.3769C22.2848 10.6145 21.6737 8.55082 23.0669 7.38438C25.5494 5.30602 24.3427 0.0735223 20.088 0.0312958L20.0882 0.0309364ZM32.4528 36.4681L32.1075 36.5664L32.6717 36.4148C32.5965 36.4357 32.5232 36.453 32.4528 36.4681ZM38.1523 14.5856C38.2186 14.7799 38.2776 14.9765 38.3293 15.1752L38.1523 14.5856Z" fill="#DE0000"/>
</svg>
