<svg width="21" height="22" viewBox="0 0 21 22" fill="none" xmlns="http://www.w3.org/2000/svg">
<path id="Vector" d="M18.5 10.6416H17V6.6416C17 6.11117 16.7893 5.60246 16.4142 5.22739C16.0391 4.85231 15.5304 4.6416 15 4.6416H11V3.1416C11 2.47856 10.7366 1.84268 10.2678 1.37383C9.79893 0.904994 9.16304 0.641602 8.5 0.641602C7.83696 0.641602 7.20107 0.904994 6.73223 1.37383C6.26339 1.84268 6 2.47856 6 3.1416V4.6416H2C1.46957 4.6416 0.960859 4.85231 0.585786 5.22739C0.210714 5.60246 0 6.11117 0 6.6416V10.4416H1.5C3 10.4416 4.2 11.6416 4.2 13.1416C4.2 14.6416 3 15.8416 1.5 15.8416H0V19.6416C0 20.172 0.210714 20.6807 0.585786 21.0558C0.960859 21.4309 1.46957 21.6416 2 21.6416H5.8V20.1416C5.8 18.6416 7 17.4416 8.5 17.4416C10 17.4416 11.2 18.6416 11.2 20.1416V21.6416H15C15.5304 21.6416 16.0391 21.4309 16.4142 21.0558C16.7893 20.6807 17 20.172 17 19.6416V15.6416H18.5C19.163 15.6416 19.7989 15.3782 20.2678 14.9094C20.7366 14.4405 21 13.8046 21 13.1416C21 12.4786 20.7366 11.8427 20.2678 11.3738C19.7989 10.905 19.163 10.6416 18.5 10.6416Z" fill="#DE0000"/>
</svg>
