<svg width="159" height="128" viewBox="0 0 159 128" fill="none" xmlns="http://www.w3.org/2000/svg">
<path d="M107.506 103.314L97.6057 93.4139C97.4147 93.2294 97.2623 93.0087 97.1575 92.7647C97.0527 92.5207 96.9975 92.2583 96.9952 91.9927C96.9929 91.7272 97.0435 91.4638 97.1441 91.218C97.2446 90.9722 97.3931 90.7489 97.5809 90.5611C97.7687 90.3733 97.992 90.2248 98.2378 90.1243C98.4836 90.0237 98.7469 89.9731 99.0125 89.9754C99.2781 89.9777 99.5405 90.0329 99.7845 90.1377C100.029 90.2425 100.249 90.3949 100.434 90.5859L111.748 101.9C112.123 102.275 112.333 102.784 112.333 103.314C112.333 103.844 112.123 104.353 111.748 104.728L100.434 116.042C100.249 116.233 100.029 116.385 99.7845 116.49C99.5405 116.595 99.2781 116.65 99.0125 116.652C98.7469 116.655 98.4836 116.604 98.2378 116.504C97.992 116.403 97.7687 116.254 97.5809 116.067C97.3931 115.879 97.2446 115.656 97.1441 115.41C97.0435 115.164 96.9929 114.901 96.9952 114.635C96.9975 114.37 97.0527 114.107 97.1575 113.863C97.2623 113.619 97.4147 113.398 97.6057 113.214L107.506 103.314ZM115.02 112H131.02C131.55 112 132.059 112.211 132.434 112.586C132.809 112.961 133.02 113.469 133.02 114C133.02 114.53 132.809 115.039 132.434 115.414C132.059 115.789 131.55 116 131.02 116H115.02C114.489 116 113.981 115.789 113.605 115.414C113.23 115.039 113.02 114.53 113.02 114C113.02 113.469 113.23 112.961 113.605 112.586C113.981 112.211 114.489 112 115.02 112Z" fill="#CBD5E1"/>
<path d="M41.8302 29.5333C40.9601 28.9568 39.9369 28.655 38.8933 28.6668C37.8496 28.6787 36.8336 29.0038 35.9769 29.5999L9.76019 47.8666C8.36019 48.8399 7.52686 50.4333 7.52686 52.1399V71.8166C7.52686 73.5666 8.40686 75.1966 9.86686 76.1599L36.5135 93.7766C37.3654 94.3398 38.364 94.6401 39.3852 94.6401C40.4064 94.6401 41.405 94.3398 42.2569 93.7766L69.4335 75.8233C70.8935 74.8566 71.7702 73.2233 71.7702 71.4766V52.1433C71.7702 50.3966 70.8935 48.7666 69.4369 47.7999L41.8302 29.5333ZM62.1302 50.8433L52.0835 57.5866L42.6635 50.7366L42.6035 37.2633L62.1269 50.8433H62.1302ZM35.7902 37.2766V50.4666L26.1335 57.2133L16.5102 50.7566L35.7902 37.2766ZM13.8669 57.2533L20.1002 61.4299L13.8669 65.7899V57.2566V57.2533ZM35.9502 85.3633L16.5135 72.3333L26.2235 65.5433L35.9569 72.0699V85.3699L35.9502 85.3633ZM32.2669 61.3199L38.5602 56.9199L45.8935 61.7366L39.3935 66.1033L32.2669 61.3199ZM42.8235 85.3633V72.0633L52.1235 65.8299L62.1335 72.4133L42.8235 85.3633ZM64.9069 66.0133L58.3069 61.6799L64.9069 57.2499V66.0166V66.0133Z" fill="#E1E6EF"/>
<path d="M135 41.3334C134.293 41.3334 133.615 41.0525 133.114 40.5524C132.614 40.0523 132.333 39.374 132.333 38.6667C132.333 37.9595 132.614 37.2812 133.114 36.7811C133.615 36.281 134.293 36.0001 135 36.0001C137.408 35.999 139.771 35.3458 141.837 34.1099C143.904 32.8741 145.597 31.1017 146.737 28.9809C147.878 26.86 148.422 24.47 148.314 22.0646C148.205 19.6591 147.447 17.328 146.12 15.3187C144.793 13.3095 142.946 11.6971 140.777 10.6527C138.607 9.60839 136.195 9.17109 133.797 9.38726C131.399 9.60343 129.104 10.465 127.156 11.8805C125.208 13.296 123.68 15.2126 122.733 17.4267L120.813 21.9228L116.168 20.3974C115.069 20.0374 113.904 19.9201 112.755 20.0535C111.606 20.1869 110.5 20.5679 109.513 21.1702C108.525 21.7725 107.68 22.5818 107.035 23.5423C106.391 24.5028 105.962 25.5916 105.779 26.7337C105.596 27.8759 105.663 29.0441 105.975 30.158C106.287 31.2718 106.837 32.3048 107.586 33.1856C108.336 34.0664 109.268 34.7741 110.318 35.26C111.367 35.7459 112.51 35.9984 113.667 36.0001H119C119.707 36.0001 120.386 36.281 120.886 36.7811C121.386 37.2812 121.667 37.9595 121.667 38.6667C121.667 39.374 121.386 40.0523 120.886 40.5524C120.386 41.0525 119.707 41.3334 119 41.3334H113.667C111.738 41.3323 109.833 40.9129 108.082 40.104C106.331 39.2951 104.777 38.116 103.526 36.6481C102.275 35.1802 101.357 33.4584 100.836 31.6015C100.315 29.7446 100.204 27.7968 100.508 25.8924C100.813 23.9881 101.528 22.1725 102.602 20.571C103.677 18.9696 105.086 17.6202 106.733 16.6162C108.379 15.6121 110.224 14.9772 112.14 14.7553C114.056 14.5334 115.997 14.7297 117.829 15.3307C119.522 11.3778 122.526 8.12997 126.336 6.13594C130.146 4.14191 134.527 3.52386 138.739 4.38619C142.952 5.24852 146.738 7.53838 149.457 10.869C152.177 14.1996 153.664 18.3668 153.667 22.6667C153.667 27.6175 151.7 32.3654 148.199 35.8661C144.699 39.3668 139.951 41.3334 135 41.3334ZM128.893 33.5041C130.277 34.0321 130.992 35.6401 130.488 37.0934L126.84 47.6268C126.333 49.0801 124.805 49.8294 123.421 49.2987C122.037 48.7707 121.325 47.1628 121.829 45.7094L125.477 35.1761C125.979 33.7227 127.509 32.9734 128.893 33.5041ZM133.245 44.0347C134.629 44.5627 135.341 46.1707 134.837 47.6241L131.189 58.1574C130.688 59.6107 129.157 60.3601 127.773 59.8294C126.389 59.3014 125.675 57.6934 126.179 56.2401L129.827 45.7067C130.333 44.2534 131.861 43.5041 133.245 44.0347ZM124.333 43.8641H132.333C133.805 43.8641 135 45.1174 135 46.6667C135 48.2134 133.805 49.4667 132.333 49.4667H124.333C122.861 49.4667 121.667 48.2134 121.667 46.6667C121.667 45.1201 122.861 43.8667 124.333 43.8667V43.8641Z" fill="#E2E8F0"/>
</svg>
