 <svg
            xmlns="http://www.w3.org/2000/svg"
            width="64"
            height="64"
            viewBox="0 0 64 64"
            fill="none"
            className="-ml-14 -mt-6 "
          >
            <path
              d="M40 41.3334C39.2928 41.3334 38.6145 41.0525 38.1144 40.5524C37.6143 40.0523 37.3334 39.374 37.3334 38.6667C37.3334 37.9595 37.6143 37.2812 38.1144 36.7811C38.6145 36.281 39.2928 36.0001 40 36.0001C42.4079 35.999 44.7706 35.3458 46.8372 34.1099C48.9038 32.8741 50.5971 31.1017 51.7374 28.9809C52.8777 26.86 53.4223 24.47 53.3136 22.0646C53.2048 19.6591 52.4467 17.328 51.1197 15.3187C49.7927 13.3095 47.9464 11.6971 45.7767 10.6527C43.607 9.60839 41.1951 9.17109 38.7969 9.38726C36.3987 9.60343 34.1038 10.465 32.1559 11.8805C30.2079 13.296 28.6797 15.2126 27.7334 17.4267L25.8134 21.9228L21.168 20.3974C20.0688 20.0374 18.9045 19.9201 17.7555 20.0535C16.6065 20.1869 15.5001 20.5679 14.5126 21.1702C13.525 21.7725 12.6799 22.5818 12.0353 23.5423C11.3907 24.5028 10.9621 25.5916 10.779 26.7337C10.5959 27.8759 10.6627 29.0441 10.9747 30.158C11.2867 31.2718 11.8366 32.3048 12.5863 33.1856C13.3361 34.0664 14.2679 34.7741 15.3177 35.26C16.3674 35.7459 17.51 35.9984 18.6667 36.0001H24C24.7073 36.0001 25.3855 36.281 25.8856 36.7811C26.3857 37.2812 26.6667 37.9595 26.6667 38.6667C26.6667 39.374 26.3857 40.0523 25.8856 40.5524C25.3855 41.0525 24.7073 41.3334 24 41.3334H18.6667C16.7381 41.3323 14.8327 40.9129 13.0819 40.104C11.3312 39.2951 9.7767 38.116 8.52581 36.6481C7.27491 35.1802 6.35735 33.4584 5.83642 31.6015C5.31549 29.7446 5.2036 27.7968 5.50846 25.8924C5.81332 23.9881 6.52767 22.1725 7.60224 20.571C8.67682 18.9696 10.086 17.6202 11.7326 16.6162C13.3793 15.6121 15.2241 14.9772 17.1399 14.7553C19.0557 14.5334 20.9968 14.7297 22.8294 15.3307C24.5215 11.3778 27.5262 8.12997 31.3359 6.13594C35.1455 4.14191 39.5267 3.52386 43.7393 4.38619C47.9519 5.24852 51.7377 7.53838 54.4574 10.869C57.1771 14.1996 58.6639 18.3668 58.6667 22.6667C58.6667 27.6175 56.7 32.3654 53.1994 35.8661C49.6987 39.3668 44.9507 41.3334 40 41.3334ZM33.8934 33.5041C35.2774 34.0321 35.992 35.6401 35.488 37.0934L31.84 47.6268C31.3334 49.0801 29.8054 49.8294 28.4214 49.2987C27.0374 48.7707 26.3254 47.1628 26.8294 45.7094L30.4774 35.1761C30.9787 33.7227 32.5094 32.9734 33.8934 33.5041ZM38.2454 44.0347C39.6294 44.5627 40.3414 46.1707 39.8374 47.6241L36.1894 58.1574C35.688 59.6107 34.1574 60.3601 32.7734 59.8294C31.3894 59.3014 30.6747 57.6934 31.1787 56.2401L34.8267 45.7067C35.3334 44.2534 36.8614 43.5041 38.2454 44.0347ZM29.3334 43.8641H37.3334C38.8054 43.8641 40 45.1174 40 46.6667C40 48.2134 38.8054 49.4667 37.3334 49.4667H29.3334C27.8614 49.4667 26.6667 48.2134 26.6667 46.6667C26.6667 45.1201 27.8614 43.8667 29.3334 43.8667V43.8641Z"
              fill="#CBD5E1"
            />
          </svg>