 <svg
    xmlns="http://www.w3.org/2000/svg"
    width="80"
    height="80"
    viewBox="0 0 80 80"
    fill="none"
    >
    <path
        d="M41.8297 7.53327C40.9596 6.95681 39.9364 6.65496 38.8928 6.66684C37.8491 6.67873 36.8331 7.0038 35.9764 7.59994L9.7597 25.8666C8.3597 26.8399 7.52637 28.4333 7.52637 30.1399V49.8166C7.52637 51.5666 8.40637 53.1966 9.86637 54.1599L36.513 71.7766C37.3649 72.3398 38.3635 72.6401 39.3847 72.6401C40.4059 72.6401 41.4045 72.3398 42.2564 71.7766L69.433 53.8233C70.893 52.8566 71.7697 51.2233 71.7697 49.4766V30.1433C71.7697 28.3966 70.893 26.7666 69.4364 25.7999L41.8297 7.53327ZM62.1297 28.8433L52.083 35.5866L42.663 28.7366L42.603 15.2633L62.1264 28.8433H62.1297ZM35.7897 15.2766V28.4666L26.133 35.2133L16.5097 28.7566L35.7897 15.2766ZM13.8664 35.2533L20.0997 39.4299L13.8664 43.7899V35.2566V35.2533ZM35.9497 63.3633L16.513 50.3333L26.223 43.5433L35.9564 50.0699V63.3699L35.9497 63.3633ZM32.2664 39.3199L38.5597 34.9199L45.893 39.7366L39.393 44.1033L32.2664 39.3199ZM42.823 63.3633V50.0633L52.123 43.8299L62.133 50.4133L42.823 63.3633ZM64.9064 44.0133L58.3064 39.6799L64.9064 35.2499V44.0166V44.0133Z"
        fill="#CBD5E1"
    />
   </svg>