 <svg
            xmlns="http://www.w3.org/2000/svg"
            width="48"
            height="48"
            viewBox="0 0 48 48"
            fill="none"
            className="mt-14"
          >
            <path
              d="M16.5057 23.3142L6.60569 13.4142C6.41467 13.2297 6.26231 13.009 6.15749 12.765C6.05267 12.521 5.9975 12.2585 5.99519 11.993C5.99289 11.7274 6.04349 11.464 6.14405 11.2183C6.24461 10.9725 6.39312 10.7492 6.5809 10.5614C6.76869 10.3736 6.99199 10.2251 7.23779 10.1245C7.48358 10.024 7.74694 9.97335 8.0125 9.97566C8.27805 9.97797 8.54049 10.0331 8.7845 10.138C9.02851 10.2428 9.2492 10.3951 9.43369 10.5862L20.7477 21.9002C21.1226 22.2752 21.3333 22.7838 21.3333 23.3142C21.3333 23.8445 21.1226 24.3531 20.7477 24.7282L9.43369 36.0422C9.2492 36.2332 9.02851 36.3855 8.7845 36.4904C8.54049 36.5952 8.27805 36.6504 8.0125 36.6527C7.74694 36.655 7.48358 36.6044 7.23779 36.5038C6.99199 36.4032 6.76869 36.2547 6.5809 36.067C6.39312 35.8792 6.24461 35.6559 6.14405 35.4101C6.04349 35.1643 5.99289 34.9009 5.99519 34.6354C5.9975 34.3698 6.05267 34.1074 6.15749 33.8634C6.26231 33.6193 6.41467 33.3987 6.60569 33.2142L16.5057 23.3142ZM24.0197 32.0002H40.0197C40.5501 32.0002 41.0588 32.2109 41.4339 32.586C41.809 32.961 42.0197 33.4697 42.0197 34.0002C42.0197 34.5306 41.809 35.0393 41.4339 35.4144C41.0588 35.7895 40.5501 36.0002 40.0197 36.0002H24.0197C23.4893 36.0002 22.9806 35.7895 22.6055 35.4144C22.2304 35.0393 22.0197 34.5306 22.0197 34.0002C22.0197 33.4697 22.2304 32.961 22.6055 32.586C22.9806 32.2109 23.4893 32.0002 24.0197 32.0002Z"
              fill="#CBD5E1"
            />
          </svg>