<svg width="57" height="56" viewBox="0 0 57 56" fill="none" xmlns="http://www.w3.org/2000/svg">
<path fill-rule="evenodd" clip-rule="evenodd" d="M19.0808 22C19.0808 21.4477 19.5285 21 20.0808 21H36.0808C36.6331 21 37.0808 21.4477 37.0808 22C37.0808 22.5523 36.6331 23 36.0808 23H20.0808C19.5285 23 19.0808 22.5523 19.0808 22ZM19.0808 28C19.0808 27.4477 19.5285 27 20.0808 27H36.0808C36.6331 27 37.0808 27.4477 37.0808 28C37.0808 28.5523 36.6331 29 36.0808 29H20.0808C19.5285 29 19.0808 28.5523 19.0808 28ZM20.0808 33C19.5285 33 19.0808 33.4477 19.0808 34C19.0808 34.5523 19.5285 35 20.0808 35H36.0808C36.6331 35 37.0808 34.5523 37.0808 34C37.0808 33.4477 36.6331 33 36.0808 33H20.0808Z" fill="black"/>
</svg>
