<svg width="42" height="41" viewBox="0 0 42 41" fill="none" xmlns="http://www.w3.org/2000/svg">
<path d="M40.3266 20.4651C40.3266 31.2225 31.6737 39.9302 21.0156 39.9302C10.3575 39.9302 1.70453 31.2225 1.70453 20.4651C1.70453 9.70769 10.3575 1 21.0156 1C31.6737 1 40.3266 9.70769 40.3266 20.4651Z" stroke="white" stroke-width="2"/>
<path fill-rule="evenodd" clip-rule="evenodd" d="M22.3926 13.3249C22.529 13.2071 22.6866 13.1183 22.8562 13.0635C23.0258 13.0087 23.2042 12.9891 23.3812 13.0057C23.5581 13.0224 23.7302 13.075 23.8875 13.1605C24.0448 13.246 24.1843 13.3628 24.298 13.5041L28.8054 19.104C28.9241 19.2445 29.0145 19.4082 29.0712 19.5854C29.128 19.7626 29.1499 19.9497 29.1357 20.1358C29.1215 20.3219 29.0716 20.5032 28.9887 20.669C28.9059 20.8348 28.7918 20.9818 28.6533 21.1013C28.5148 21.2208 28.3546 21.3104 28.1821 21.3649C28.0096 21.4193 27.8283 21.4375 27.649 21.4184C27.4696 21.3993 27.2957 21.3432 27.1376 21.2535C26.9795 21.1638 26.8403 21.0422 26.7282 20.896L22.2195 15.2961C21.99 15.0109 21.8794 14.643 21.9118 14.2734C21.9443 13.9038 22.1172 13.5626 22.3926 13.3249Z" fill="white"/>
<path fill-rule="evenodd" clip-rule="evenodd" d="M22.3926 26.6751C22.1172 26.4374 21.9443 26.0962 21.9118 25.7266C21.8794 25.357 21.99 24.9891 22.2195 24.7039L26.7282 19.104C26.8403 18.9578 26.9795 18.8362 27.1376 18.7465C27.2957 18.6568 27.4696 18.6007 27.649 18.5816C27.8283 18.5625 28.0096 18.5807 28.1821 18.6351C28.3546 18.6896 28.5148 18.7792 28.6533 18.8987C28.7918 19.0182 28.9059 19.1652 28.9887 19.331C29.0716 19.4968 29.1215 19.6781 29.1357 19.8642C29.1499 20.0503 29.128 20.2374 29.0712 20.4146C29.0145 20.5918 28.9241 20.7555 28.8054 20.896L24.298 26.4959C24.1843 26.6372 24.0448 26.754 23.8875 26.8395C23.7302 26.925 23.5581 26.9776 23.3812 26.9943C23.2042 27.0109 23.0258 26.9913 22.8562 26.9365C22.6866 26.8817 22.529 26.7929 22.3926 26.6751Z" fill="white"/>
<path fill-rule="evenodd" clip-rule="evenodd" d="M26.4144 20C26.4144 20.3713 26.272 20.7274 26.0183 20.9899C25.7647 21.2525 25.4208 21.4 25.0621 21.4H14.2434C13.8847 21.4 13.5408 21.2525 13.2872 20.9899C13.0335 20.7274 12.8911 20.3713 12.8911 20C12.8911 19.6287 13.0335 19.2726 13.2872 19.0101C13.5408 18.7475 13.8847 18.6 14.2434 18.6H25.0621C25.4208 18.6 25.7647 18.7475 26.0183 19.0101C26.272 19.2726 26.4144 19.6287 26.4144 20Z" fill="white"/>
</svg>
