<svg width="24" height="24" viewBox="0 0 24 24" fill="none" xmlns="http://www.w3.org/2000/svg">
<path d="M11.353 0H12.721C15.5143 0.145333 18.229 0.684 20.865 1.616C21.0096 1.66733 21.0816 1.77033 21.081 1.925C21.071 4.61367 21.0703 8.64767 21.079 14.027C21.079 14.567 21.048 14.958 20.986 15.2C20.769 16.045 20.226 16.835 19.66 17.525C19.448 17.7837 19.1066 18.1323 18.636 18.571C16.666 20.4043 14.6626 22.1023 12.626 23.665C12.504 23.7583 12.332 23.87 12.11 24H11.94C11.522 23.72 11.207 23.4957 10.995 23.327C8.33362 21.2043 6.51962 19.718 5.55295 18.868C4.65429 18.078 3.93129 17.2077 3.38395 16.257C3.01495 15.617 2.91795 14.97 2.91895 14.158C2.92562 10.126 2.92629 6.05333 2.92095 1.94C2.92095 1.757 3.01095 1.676 3.18195 1.615C5.82395 0.689667 8.54829 0.151333 11.353 0ZM7.47395 7.864C7.47395 7.80133 7.49695 7.791 7.54295 7.833L10.34 10.349C10.3784 10.3841 10.4092 10.4267 10.4302 10.4743C10.4512 10.5218 10.462 10.5731 10.462 10.625L10.456 14.958C10.4557 14.9822 10.4602 15.0061 10.4693 15.0285C10.4784 15.0509 10.4919 15.0712 10.5089 15.0883C10.5259 15.1055 10.5462 15.119 10.5685 15.1282C10.5909 15.1375 10.6148 15.1421 10.639 15.142L13.163 15.124C13.1918 15.1235 13.2192 15.1117 13.2394 15.0911C13.2596 15.0705 13.271 15.0428 13.271 15.014C13.2663 13.5467 13.2696 12.0597 13.281 10.553C13.2823 10.4377 13.331 10.341 13.427 10.263C14.3583 9.49967 15.3403 8.702 16.373 7.87C16.4183 7.83333 16.441 7.844 16.441 7.902V18.783C16.441 18.8443 16.462 18.8523 16.504 18.807C17.0333 18.2303 17.576 17.6177 18.132 16.969C18.6053 16.4157 18.9333 15.7923 19.116 15.099C19.2893 14.4397 19.3766 13.774 19.378 13.102C19.3826 9.93267 19.3856 6.67667 19.387 3.334C19.387 3.31606 19.3834 3.29829 19.3765 3.28172C19.3696 3.26516 19.3595 3.25012 19.3468 3.23748C19.334 3.22484 19.3189 3.21484 19.3023 3.20806C19.2857 3.20129 19.2679 3.19787 19.25 3.198C18.4833 3.20067 17.6753 3.20067 16.826 3.198C16.539 3.196 16.385 3.176 16.207 3.347C14.8423 4.66033 13.434 6.01133 11.982 7.4C11.9735 7.40773 11.9624 7.41201 11.951 7.41201C11.9395 7.41201 11.9284 7.40773 11.92 7.4C10.4946 6.09133 9.11095 4.79967 7.76895 3.525C7.53495 3.303 7.25395 3.144 6.92595 3.152C6.19929 3.16933 5.42262 3.171 4.59595 3.157C4.47329 3.15433 4.41195 3.21433 4.41195 3.337C4.40995 6.36367 4.41162 9.37433 4.41695 12.369C4.41829 12.7263 4.43029 13.0687 4.45295 13.396C4.52895 14.489 4.65295 15.522 5.25595 16.417C5.82995 17.269 6.58495 18.073 7.38195 18.822C7.39729 18.8367 7.41529 18.8453 7.43595 18.848C7.46262 18.852 7.47595 18.8407 7.47595 18.814L7.47395 7.864Z" fill="#64748B"/>
</svg>
