<svg width="24" height="24" viewBox="0 0 24 24" fill="none" xmlns="http://www.w3.org/2000/svg">
<mask id="mask0_44_1356" style="mask-type:luminance" maskUnits="userSpaceOnUse" x="0" y="0" width="24" height="24">
<path d="M16.9524 23.8681C17.1426 23.9429 17.346 23.9774 17.5501 23.9695C17.7541 23.9616 17.9543 23.9114 18.1383 23.8222L23.06 21.4352C23.3135 21.3122 23.5274 21.1196 23.6771 20.8795C23.8267 20.6394 23.9061 20.3616 23.9061 20.078V3.89255C23.9061 3.60901 23.8267 3.33121 23.6771 3.09112C23.5274 2.85104 23.3135 2.65842 23.06 2.53542L18.1384 0.148365C17.8603 0.0134839 17.5474 -0.0309269 17.2432 0.0212803C16.9389 0.0734874 16.6583 0.21973 16.4402 0.439767L7.01802 9.10386L2.91382 5.96383C2.72869 5.82219 2.5002 5.75034 2.26801 5.76074C2.03581 5.77115 1.81455 5.86316 1.64263 6.02081L0.326338 7.2277C-0.107706 7.62559 -0.108175 8.31385 0.325213 8.7124L3.88447 11.9853L0.325213 15.2581C-0.108175 15.6567 -0.107706 16.3449 0.326338 16.7429L1.64263 17.9497C1.81454 18.1073 2.03579 18.1993 2.26799 18.2098C2.50019 18.2202 2.72868 18.1484 2.91382 18.0067L7.01802 14.8666L16.4402 23.5307C16.5858 23.6778 16.7603 23.7927 16.9524 23.8681ZM17.9333 6.51545L10.7841 11.9853L17.9333 17.455V6.51545Z" fill="#64748B"/>
</mask>
<g mask="url(#mask0_44_1356)">
<path d="M23.0746 2.53918L18.149 0.14882C17.8709 0.0138297 17.5579 -0.0306757 17.2536 0.0214628C16.9492 0.0736013 16.6684 0.219806 16.4501 0.439844L0.325389 15.2581C-0.10828 15.6568 -0.107718 16.3449 0.326514 16.7429L1.64365 17.9497C1.81571 18.1074 2.0371 18.1995 2.26944 18.2099C2.50177 18.2203 2.7304 18.1485 2.91569 18.0068L22.3335 3.15931C22.9849 2.66126 23.9206 3.12954 23.9206 3.95367V3.89603C23.9206 3.61254 23.8412 3.33481 23.6916 3.09478C23.5419 2.85474 23.3281 2.66216 23.0746 2.53918Z" fill="#0065A9"/>
</g>
<mask id="mask1_44_1356" style="mask-type:luminance" maskUnits="userSpaceOnUse" x="0" y="0" width="24" height="24">
<path d="M16.9524 23.8681C17.1426 23.9429 17.346 23.9774 17.5501 23.9695C17.7541 23.9616 17.9543 23.9114 18.1383 23.8222L23.06 21.4352C23.3135 21.3122 23.5274 21.1196 23.6771 20.8795C23.8267 20.6394 23.9061 20.3616 23.9061 20.078V3.89255C23.9061 3.60901 23.8267 3.33121 23.6771 3.09112C23.5274 2.85104 23.3135 2.65842 23.06 2.53542L18.1384 0.148365C17.8603 0.0134839 17.5474 -0.0309269 17.2432 0.0212803C16.9389 0.0734874 16.6583 0.21973 16.4402 0.439767L7.01802 9.10386L2.91382 5.96383C2.72869 5.82219 2.5002 5.75034 2.26801 5.76074C2.03581 5.77115 1.81455 5.86316 1.64263 6.02081L0.326338 7.2277C-0.107706 7.62559 -0.108175 8.31385 0.325213 8.7124L3.88447 11.9853L0.325213 15.2581C-0.108175 15.6567 -0.107706 16.3449 0.326338 16.7429L1.64263 17.9497C1.81454 18.1073 2.03579 18.1993 2.26799 18.2098C2.50019 18.2202 2.72868 18.1484 2.91382 18.0067L7.01802 14.8666L16.4402 23.5307C16.5858 23.6778 16.7603 23.7927 16.9524 23.8681ZM17.9333 6.51545L10.7841 11.9853L17.9333 17.455V6.51545Z" fill="white"/>
</mask>
<g mask="url(#mask1_44_1356)">
<path d="M23.0746 21.4314L18.149 23.8218C17.8709 23.9567 17.5579 24.0012 17.2536 23.9491C16.9492 23.897 16.6684 23.7508 16.4501 23.5308L0.325389 8.71245C-0.10828 8.3139 -0.107718 7.62565 0.326514 7.22776L1.64365 6.02086C1.81572 5.86318 2.03712 5.77116 2.26945 5.76076C2.50179 5.75035 2.73041 5.82221 2.91569 5.96388L22.3335 20.8113C22.9849 21.3093 23.9206 20.841 23.9206 20.0168V20.0746C23.9206 20.358 23.8412 20.6358 23.6915 20.8758C23.5419 21.1158 23.3281 21.3084 23.0746 21.4314Z" fill="#007ACC"/>
</g>
<mask id="mask2_44_1356" style="mask-type:luminance" maskUnits="userSpaceOnUse" x="0" y="0" width="24" height="24">
<path d="M16.9524 23.8681C17.1426 23.9429 17.346 23.9774 17.5501 23.9695C17.7541 23.9616 17.9543 23.9114 18.1383 23.8222L23.06 21.4352C23.3135 21.3122 23.5274 21.1196 23.6771 20.8795C23.8267 20.6394 23.9061 20.3616 23.9061 20.078V3.89255C23.9061 3.60901 23.8267 3.33121 23.6771 3.09112C23.5274 2.85104 23.3135 2.65842 23.06 2.53542L18.1384 0.148365C17.8603 0.0134839 17.5474 -0.0309269 17.2432 0.0212803C16.9389 0.0734874 16.6583 0.21973 16.4402 0.439767L7.01802 9.10386L2.91382 5.96383C2.72869 5.82219 2.5002 5.75034 2.26801 5.76074C2.03581 5.77115 1.81455 5.86316 1.64263 6.02081L0.326338 7.2277C-0.107706 7.62559 -0.108175 8.31385 0.325213 8.7124L3.88447 11.9853L0.325213 15.2581C-0.108175 15.6567 -0.107706 16.3449 0.326338 16.7429L1.64263 17.9497C1.81454 18.1073 2.03579 18.1993 2.26799 18.2098C2.50019 18.2202 2.72868 18.1484 2.91382 18.0067L7.01802 14.8666L16.4402 23.5307C16.5858 23.6778 16.7603 23.7927 16.9524 23.8681ZM17.9333 6.51545L10.7841 11.9853L17.9333 17.455V6.51545Z" fill="white"/>
</mask>
<g mask="url(#mask2_44_1356)">
<path d="M18.1337 23.8236C17.8555 23.9585 17.5425 24.0029 17.2381 23.9507C16.9337 23.8985 16.6529 23.7523 16.4346 23.5323C16.9859 24.0879 17.9287 23.6943 17.9287 22.9084V1.06505C17.9287 0.279101 16.9859 -0.114442 16.4346 0.441243C16.6529 0.221187 16.9337 0.0749458 17.2381 0.0227422C17.5425 -0.0294613 17.8555 0.0149524 18.1337 0.149841L23.0585 2.5369C23.3121 2.65981 23.526 2.8524 23.6758 3.09249C23.8256 3.33259 23.905 3.61043 23.905 3.89403V20.0796C23.905 20.6583 23.576 21.1859 23.0585 21.4367L18.1337 23.8236Z" fill="#1F9CF0"/>
</g>
<mask id="mask3_44_1356" style="mask-type:luminance" maskUnits="userSpaceOnUse" x="0" y="0" width="24" height="24">
<path d="M16.9524 23.8681C17.1426 23.9429 17.346 23.9774 17.5501 23.9695C17.7541 23.9616 17.9543 23.9114 18.1383 23.8222L23.06 21.4352C23.3135 21.3122 23.5274 21.1196 23.6771 20.8795C23.8267 20.6394 23.9061 20.3616 23.9061 20.078V3.89255C23.9061 3.60901 23.8267 3.33121 23.6771 3.09112C23.5274 2.85104 23.3135 2.65842 23.06 2.53542L18.1384 0.148365C17.8603 0.0134839 17.5474 -0.0309269 17.2432 0.0212803C16.9389 0.0734874 16.6583 0.21973 16.4402 0.439767L7.01802 9.10386L2.91382 5.96383C2.72869 5.82219 2.5002 5.75034 2.26801 5.76074C2.03581 5.77115 1.81455 5.86316 1.64263 6.02081L0.326338 7.2277C-0.107706 7.62559 -0.108175 8.31385 0.325213 8.7124L3.88447 11.9853L0.325213 15.2581C-0.108175 15.6567 -0.107706 16.3449 0.326338 16.7429L1.64263 17.9497C1.81454 18.1073 2.03579 18.1993 2.26799 18.2098C2.50019 18.2202 2.72868 18.1484 2.91382 18.0067L7.01802 14.8666L16.4402 23.5307C16.5858 23.6778 16.7603 23.7927 16.9524 23.8681ZM17.9333 6.51545L10.7841 11.9853L17.9333 17.455V6.51545Z" fill="white"/>
</mask>
<g mask="url(#mask3_44_1356)">
<path d="M16.9524 23.8682C17.1426 23.9429 17.3461 23.9774 17.5501 23.9695C17.7541 23.9616 17.9543 23.9115 18.1383 23.8223L23.0599 21.4352C23.3134 21.3122 23.5273 21.1196 23.677 20.8795C23.8267 20.6394 23.9061 20.3616 23.9061 20.0781V3.89262C23.9061 3.60907 23.8267 3.33127 23.6771 3.09119C23.5274 2.8511 23.3135 2.65848 23.06 2.53548L18.1382 0.148335C17.8601 0.0134749 17.5473 -0.0309241 17.243 0.0212826C16.9388 0.0734893 16.6582 0.21972 16.4401 0.439736L7.01802 9.10393L2.91382 5.96389C2.72869 5.82225 2.5002 5.7504 2.26801 5.76081C2.03581 5.77121 1.81455 5.86322 1.64263 6.02087L0.326338 7.22777C-0.107706 7.62566 -0.108175 8.31391 0.325213 8.71246L3.88447 11.9853L0.325213 15.2581C-0.108175 15.6568 -0.107706 16.3449 0.326338 16.7429L1.64263 17.9497C1.81454 18.1074 2.03579 18.1994 2.26799 18.2098C2.50019 18.2203 2.72868 18.1484 2.91382 18.0068L7.01802 14.8667L16.4401 23.5308C16.5858 23.6778 16.7602 23.7927 16.9524 23.8682ZM17.9333 6.51542L10.7841 11.9853L17.9333 17.4551V6.51542Z" fill="url(#paint0_linear_44_1356)" fill-opacity="0.25"/>
</g>
<defs>
<linearGradient id="paint0_linear_44_1356" x1="1195.28" y1="0" x2="1195.28" y2="2397.06" gradientUnits="userSpaceOnUse">
<stop stop-color="white"/>
<stop offset="1" stop-color="white" stop-opacity="0"/>
</linearGradient>
</defs>
</svg>
