<svg width="176" height="176" viewBox="0 0 176 176" fill="none" xmlns="http://www.w3.org/2000/svg">
<path d="M8.93331 7.6001V4.26676C8.93331 4.08995 8.86307 3.92038 8.73805 3.79536C8.61302 3.67034 8.44345 3.6001 8.26664 3.6001C8.08983 3.6001 7.92026 3.67034 7.79524 3.79536C7.67021 3.92038 7.59998 4.08995 7.59998 4.26676V7.6001H4.26664C4.08983 7.6001 3.92026 7.67034 3.79524 7.79536C3.67021 7.92038 3.59998 8.08995 3.59998 8.26676C3.59998 8.44357 3.67021 8.61314 3.79524 8.73817C3.92026 8.86319 4.08983 8.93343 4.26664 8.93343H7.59998V12.2668C7.59998 12.4436 7.67021 12.6131 7.79524 12.7382C7.92026 12.8632 8.08983 12.9334 8.26664 12.9334C8.44345 12.9334 8.61302 12.8632 8.73805 12.7382C8.86307 12.6131 8.93331 12.4436 8.93331 12.2668V8.93343H12.2666C12.4435 8.93343 12.613 8.86319 12.738 8.73817C12.8631 8.61314 12.9333 8.44357 12.9333 8.26676C12.9333 8.08995 12.8631 7.92038 12.738 7.79536C12.613 7.67034 12.4435 7.6001 12.2666 7.6001H8.93331Z" fill="#E2E8F0"/>
<path d="M40.9333 7.6001V4.26676C40.9333 4.08995 40.8631 3.92038 40.738 3.79536C40.613 3.67034 40.4435 3.6001 40.2666 3.6001C40.0898 3.6001 39.9203 3.67034 39.7952 3.79536C39.6702 3.92038 39.6 4.08995 39.6 4.26676V7.6001H36.2666C36.0898 7.6001 35.9203 7.67034 35.7952 7.79536C35.6702 7.92038 35.6 8.08995 35.6 8.26676C35.6 8.44357 35.6702 8.61314 35.7952 8.73817C35.9203 8.86319 36.0898 8.93343 36.2666 8.93343H39.6V12.2668C39.6 12.4436 39.6702 12.6131 39.7952 12.7382C39.9203 12.8632 40.0898 12.9334 40.2666 12.9334C40.4435 12.9334 40.613 12.8632 40.738 12.7382C40.8631 12.6131 40.9333 12.4436 40.9333 12.2668V8.93343H44.2666C44.4435 8.93343 44.613 8.86319 44.738 8.73817C44.8631 8.61314 44.9333 8.44357 44.9333 8.26676C44.9333 8.08995 44.8631 7.92038 44.738 7.79536C44.613 7.67034 44.4435 7.6001 44.2666 7.6001H40.9333Z" fill="#E2E8F0"/>
<path d="M72.9333 7.6001V4.26676C72.9333 4.08995 72.8631 3.92038 72.738 3.79536C72.613 3.67034 72.4435 3.6001 72.2666 3.6001C72.0898 3.6001 71.9203 3.67034 71.7952 3.79536C71.6702 3.92038 71.6 4.08995 71.6 4.26676V7.6001H68.2666C68.0898 7.6001 67.9203 7.67034 67.7952 7.79536C67.6702 7.92038 67.6 8.08995 67.6 8.26676C67.6 8.44357 67.6702 8.61314 67.7952 8.73817C67.9203 8.86319 68.0898 8.93343 68.2666 8.93343H71.6V12.2668C71.6 12.4436 71.6702 12.6131 71.7952 12.7382C71.9203 12.8632 72.0898 12.9334 72.2666 12.9334C72.4435 12.9334 72.613 12.8632 72.738 12.7382C72.8631 12.6131 72.9333 12.4436 72.9333 12.2668V8.93343H76.2666C76.4435 8.93343 76.613 8.86319 76.738 8.73817C76.8631 8.61314 76.9333 8.44357 76.9333 8.26676C76.9333 8.08995 76.8631 7.92038 76.738 7.79536C76.613 7.67034 76.4435 7.6001 76.2666 7.6001H72.9333Z" fill="#E2E8F0"/>
<path d="M104.933 7.6001V4.26676C104.933 4.08995 104.863 3.92038 104.738 3.79536C104.613 3.67034 104.443 3.6001 104.267 3.6001C104.09 3.6001 103.92 3.67034 103.795 3.79536C103.67 3.92038 103.6 4.08995 103.6 4.26676V7.6001H100.267C100.09 7.6001 99.9203 7.67034 99.7952 7.79536C99.6702 7.92038 99.6 8.08995 99.6 8.26676C99.6 8.44357 99.6702 8.61314 99.7952 8.73817C99.9203 8.86319 100.09 8.93343 100.267 8.93343H103.6V12.2668C103.6 12.4436 103.67 12.6131 103.795 12.7382C103.92 12.8632 104.09 12.9334 104.267 12.9334C104.443 12.9334 104.613 12.8632 104.738 12.7382C104.863 12.6131 104.933 12.4436 104.933 12.2668V8.93343H108.267C108.443 8.93343 108.613 8.86319 108.738 8.73817C108.863 8.61314 108.933 8.44357 108.933 8.26676C108.933 8.08995 108.863 7.92038 108.738 7.79536C108.613 7.67034 108.443 7.6001 108.267 7.6001H104.933Z" fill="#E2E8F0"/>
<path d="M136.933 7.6001V4.26676C136.933 4.08995 136.863 3.92038 136.738 3.79536C136.613 3.67034 136.443 3.6001 136.267 3.6001C136.09 3.6001 135.92 3.67034 135.795 3.79536C135.67 3.92038 135.6 4.08995 135.6 4.26676V7.6001H132.267C132.09 7.6001 131.92 7.67034 131.795 7.79536C131.67 7.92038 131.6 8.08995 131.6 8.26676C131.6 8.44357 131.67 8.61314 131.795 8.73817C131.92 8.86319 132.09 8.93343 132.267 8.93343H135.6V12.2668C135.6 12.4436 135.67 12.6131 135.795 12.7382C135.92 12.8632 136.09 12.9334 136.267 12.9334C136.443 12.9334 136.613 12.8632 136.738 12.7382C136.863 12.6131 136.933 12.4436 136.933 12.2668V8.93343H140.267C140.443 8.93343 140.613 8.86319 140.738 8.73817C140.863 8.61314 140.933 8.44357 140.933 8.26676C140.933 8.08995 140.863 7.92038 140.738 7.79536C140.613 7.67034 140.443 7.6001 140.267 7.6001H136.933Z" fill="#E2E8F0"/>
<path d="M168.933 7.6001V4.26676C168.933 4.08995 168.863 3.92038 168.738 3.79536C168.613 3.67034 168.443 3.6001 168.267 3.6001C168.09 3.6001 167.92 3.67034 167.795 3.79536C167.67 3.92038 167.6 4.08995 167.6 4.26676V7.6001H164.267C164.09 7.6001 163.92 7.67034 163.795 7.79536C163.67 7.92038 163.6 8.08995 163.6 8.26676C163.6 8.44357 163.67 8.61314 163.795 8.73817C163.92 8.86319 164.09 8.93343 164.267 8.93343H167.6V12.2668C167.6 12.4436 167.67 12.6131 167.795 12.7382C167.92 12.8632 168.09 12.9334 168.267 12.9334C168.443 12.9334 168.613 12.8632 168.738 12.7382C168.863 12.6131 168.933 12.4436 168.933 12.2668V8.93343H172.267C172.443 8.93343 172.613 8.86319 172.738 8.73817C172.863 8.61314 172.933 8.44357 172.933 8.26676C172.933 8.08995 172.863 7.92038 172.738 7.79536C172.613 7.67034 172.443 7.6001 172.267 7.6001H168.933Z" fill="#E2E8F0"/>
<path d="M8.93331 39.6001V36.2668C8.93331 36.09 8.86307 35.9204 8.73805 35.7954C8.61302 35.6703 8.44345 35.6001 8.26664 35.6001C8.08983 35.6001 7.92026 35.6703 7.79524 35.7954C7.67021 35.9204 7.59998 36.09 7.59998 36.2668V39.6001H4.26664C4.08983 39.6001 3.92026 39.6703 3.79524 39.7954C3.67021 39.9204 3.59998 40.09 3.59998 40.2668C3.59998 40.4436 3.67021 40.6131 3.79524 40.7382C3.92026 40.8632 4.08983 40.9334 4.26664 40.9334H7.59998V44.2668C7.59998 44.4436 7.67021 44.6131 7.79524 44.7382C7.92026 44.8632 8.08983 44.9334 8.26664 44.9334C8.44345 44.9334 8.61302 44.8632 8.73805 44.7382C8.86307 44.6131 8.93331 44.4436 8.93331 44.2668V40.9334H12.2666C12.4435 40.9334 12.613 40.8632 12.738 40.7382C12.8631 40.6131 12.9333 40.4436 12.9333 40.2668C12.9333 40.09 12.8631 39.9204 12.738 39.7954C12.613 39.6703 12.4435 39.6001 12.2666 39.6001H8.93331Z" fill="#EA580C"/>
<path d="M40.9333 39.6001V36.2668C40.9333 36.09 40.8631 35.9204 40.738 35.7954C40.613 35.6703 40.4435 35.6001 40.2666 35.6001C40.0898 35.6001 39.9203 35.6703 39.7952 35.7954C39.6702 35.9204 39.6 36.09 39.6 36.2668V39.6001H36.2666C36.0898 39.6001 35.9203 39.6703 35.7952 39.7954C35.6702 39.9204 35.6 40.09 35.6 40.2668C35.6 40.4436 35.6702 40.6131 35.7952 40.7382C35.9203 40.8632 36.0898 40.9334 36.2666 40.9334H39.6V44.2668C39.6 44.4436 39.6702 44.6131 39.7952 44.7382C39.9203 44.8632 40.0898 44.9334 40.2666 44.9334C40.4435 44.9334 40.613 44.8632 40.738 44.7382C40.8631 44.6131 40.9333 44.4436 40.9333 44.2668V40.9334H44.2666C44.4435 40.9334 44.613 40.8632 44.738 40.7382C44.8631 40.6131 44.9333 40.4436 44.9333 40.2668C44.9333 40.09 44.8631 39.9204 44.738 39.7954C44.613 39.6703 44.4435 39.6001 44.2666 39.6001H40.9333Z" fill="#E2E8F0"/>
<path d="M72.9333 39.6001V36.2668C72.9333 36.09 72.8631 35.9204 72.738 35.7954C72.613 35.6703 72.4435 35.6001 72.2666 35.6001C72.0898 35.6001 71.9203 35.6703 71.7952 35.7954C71.6702 35.9204 71.6 36.09 71.6 36.2668V39.6001H68.2666C68.0898 39.6001 67.9203 39.6703 67.7952 39.7954C67.6702 39.9204 67.6 40.09 67.6 40.2668C67.6 40.4436 67.6702 40.6131 67.7952 40.7382C67.9203 40.8632 68.0898 40.9334 68.2666 40.9334H71.6V44.2668C71.6 44.4436 71.6702 44.6131 71.7952 44.7382C71.9203 44.8632 72.0898 44.9334 72.2666 44.9334C72.4435 44.9334 72.613 44.8632 72.738 44.7382C72.8631 44.6131 72.9333 44.4436 72.9333 44.2668V40.9334H76.2666C76.4435 40.9334 76.613 40.8632 76.738 40.7382C76.8631 40.6131 76.9333 40.4436 76.9333 40.2668C76.9333 40.09 76.8631 39.9204 76.738 39.7954C76.613 39.6703 76.4435 39.6001 76.2666 39.6001H72.9333Z" fill="#E2E8F0"/>
<path d="M104.933 39.6001V36.2668C104.933 36.09 104.863 35.9204 104.738 35.7954C104.613 35.6703 104.443 35.6001 104.267 35.6001C104.09 35.6001 103.92 35.6703 103.795 35.7954C103.67 35.9204 103.6 36.09 103.6 36.2668V39.6001H100.267C100.09 39.6001 99.9203 39.6703 99.7952 39.7954C99.6702 39.9204 99.6 40.09 99.6 40.2668C99.6 40.4436 99.6702 40.6131 99.7952 40.7382C99.9203 40.8632 100.09 40.9334 100.267 40.9334H103.6V44.2668C103.6 44.4436 103.67 44.6131 103.795 44.7382C103.92 44.8632 104.09 44.9334 104.267 44.9334C104.443 44.9334 104.613 44.8632 104.738 44.7382C104.863 44.6131 104.933 44.4436 104.933 44.2668V40.9334H108.267C108.443 40.9334 108.613 40.8632 108.738 40.7382C108.863 40.6131 108.933 40.4436 108.933 40.2668C108.933 40.09 108.863 39.9204 108.738 39.7954C108.613 39.6703 108.443 39.6001 108.267 39.6001H104.933Z" fill="#E2E8F0"/>
<path d="M136.933 39.6001V36.2668C136.933 36.09 136.863 35.9204 136.738 35.7954C136.613 35.6703 136.443 35.6001 136.267 35.6001C136.09 35.6001 135.92 35.6703 135.795 35.7954C135.67 35.9204 135.6 36.09 135.6 36.2668V39.6001H132.267C132.09 39.6001 131.92 39.6703 131.795 39.7954C131.67 39.9204 131.6 40.09 131.6 40.2668C131.6 40.4436 131.67 40.6131 131.795 40.7382C131.92 40.8632 132.09 40.9334 132.267 40.9334H135.6V44.2668C135.6 44.4436 135.67 44.6131 135.795 44.7382C135.92 44.8632 136.09 44.9334 136.267 44.9334C136.443 44.9334 136.613 44.8632 136.738 44.7382C136.863 44.6131 136.933 44.4436 136.933 44.2668V40.9334H140.267C140.443 40.9334 140.613 40.8632 140.738 40.7382C140.863 40.6131 140.933 40.4436 140.933 40.2668C140.933 40.09 140.863 39.9204 140.738 39.7954C140.613 39.6703 140.443 39.6001 140.267 39.6001H136.933Z" fill="#2563EB"/>
<path d="M168.933 39.6001V36.2668C168.933 36.09 168.863 35.9204 168.738 35.7954C168.613 35.6703 168.443 35.6001 168.267 35.6001C168.09 35.6001 167.92 35.6703 167.795 35.7954C167.67 35.9204 167.6 36.09 167.6 36.2668V39.6001H164.267C164.09 39.6001 163.92 39.6703 163.795 39.7954C163.67 39.9204 163.6 40.09 163.6 40.2668C163.6 40.4436 163.67 40.6131 163.795 40.7382C163.92 40.8632 164.09 40.9334 164.267 40.9334H167.6V44.2668C167.6 44.4436 167.67 44.6131 167.795 44.7382C167.92 44.8632 168.09 44.9334 168.267 44.9334C168.443 44.9334 168.613 44.8632 168.738 44.7382C168.863 44.6131 168.933 44.4436 168.933 44.2668V40.9334H172.267C172.443 40.9334 172.613 40.8632 172.738 40.7382C172.863 40.6131 172.933 40.4436 172.933 40.2668C172.933 40.09 172.863 39.9204 172.738 39.7954C172.613 39.6703 172.443 39.6001 172.267 39.6001H168.933Z" fill="#E2E8F0"/>
<path d="M8.93331 71.6001V68.2668C8.93331 68.09 8.86307 67.9204 8.73805 67.7954C8.61302 67.6703 8.44345 67.6001 8.26664 67.6001C8.08983 67.6001 7.92026 67.6703 7.79524 67.7954C7.67021 67.9204 7.59998 68.09 7.59998 68.2668V71.6001H4.26664C4.08983 71.6001 3.92026 71.6703 3.79524 71.7954C3.67021 71.9204 3.59998 72.09 3.59998 72.2668C3.59998 72.4436 3.67021 72.6131 3.79524 72.7382C3.92026 72.8632 4.08983 72.9334 4.26664 72.9334H7.59998V76.2668C7.59998 76.4436 7.67021 76.6131 7.79524 76.7382C7.92026 76.8632 8.08983 76.9334 8.26664 76.9334C8.44345 76.9334 8.61302 76.8632 8.73805 76.7382C8.86307 76.6131 8.93331 76.4436 8.93331 76.2668V72.9334H12.2666C12.4435 72.9334 12.613 72.8632 12.738 72.7382C12.8631 72.6131 12.9333 72.4436 12.9333 72.2668C12.9333 72.09 12.8631 71.9204 12.738 71.7954C12.613 71.6703 12.4435 71.6001 12.2666 71.6001H8.93331Z" fill="#E2E8F0"/>
<path d="M40.9333 71.6001V68.2668C40.9333 68.09 40.8631 67.9204 40.738 67.7954C40.613 67.6703 40.4435 67.6001 40.2666 67.6001C40.0898 67.6001 39.9203 67.6703 39.7952 67.7954C39.6702 67.9204 39.6 68.09 39.6 68.2668V71.6001H36.2666C36.0898 71.6001 35.9203 71.6703 35.7952 71.7954C35.6702 71.9204 35.6 72.09 35.6 72.2668C35.6 72.4436 35.6702 72.6131 35.7952 72.7382C35.9203 72.8632 36.0898 72.9334 36.2666 72.9334H39.6V76.2668C39.6 76.4436 39.6702 76.6131 39.7952 76.7382C39.9203 76.8632 40.0898 76.9334 40.2666 76.9334C40.4435 76.9334 40.613 76.8632 40.738 76.7382C40.8631 76.6131 40.9333 76.4436 40.9333 76.2668V72.9334H44.2666C44.4435 72.9334 44.613 72.8632 44.738 72.7382C44.8631 72.6131 44.9333 72.4436 44.9333 72.2668C44.9333 72.09 44.8631 71.9204 44.738 71.7954C44.613 71.6703 44.4435 71.6001 44.2666 71.6001H40.9333Z" fill="#E2E8F0"/>
<path d="M72.9333 71.6001V68.2668C72.9333 68.09 72.8631 67.9204 72.738 67.7954C72.613 67.6703 72.4435 67.6001 72.2666 67.6001C72.0898 67.6001 71.9203 67.6703 71.7952 67.7954C71.6702 67.9204 71.6 68.09 71.6 68.2668V71.6001H68.2666C68.0898 71.6001 67.9203 71.6703 67.7952 71.7954C67.6702 71.9204 67.6 72.09 67.6 72.2668C67.6 72.4436 67.6702 72.6131 67.7952 72.7382C67.9203 72.8632 68.0898 72.9334 68.2666 72.9334H71.6V76.2668C71.6 76.4436 71.6702 76.6131 71.7952 76.7382C71.9203 76.8632 72.0898 76.9334 72.2666 76.9334C72.4435 76.9334 72.613 76.8632 72.738 76.7382C72.8631 76.6131 72.9333 76.4436 72.9333 76.2668V72.9334H76.2666C76.4435 72.9334 76.613 72.8632 76.738 72.7382C76.8631 72.6131 76.9333 72.4436 76.9333 72.2668C76.9333 72.09 76.8631 71.9204 76.738 71.7954C76.613 71.6703 76.4435 71.6001 76.2666 71.6001H72.9333Z" fill="#E2E8F0"/>
<path d="M104.933 71.6001V68.2668C104.933 68.09 104.863 67.9204 104.738 67.7954C104.613 67.6703 104.443 67.6001 104.267 67.6001C104.09 67.6001 103.92 67.6703 103.795 67.7954C103.67 67.9204 103.6 68.09 103.6 68.2668V71.6001H100.267C100.09 71.6001 99.9203 71.6703 99.7952 71.7954C99.6702 71.9204 99.6 72.09 99.6 72.2668C99.6 72.4436 99.6702 72.6131 99.7952 72.7382C99.9203 72.8632 100.09 72.9334 100.267 72.9334H103.6V76.2668C103.6 76.4436 103.67 76.6131 103.795 76.7382C103.92 76.8632 104.09 76.9334 104.267 76.9334C104.443 76.9334 104.613 76.8632 104.738 76.7382C104.863 76.6131 104.933 76.4436 104.933 76.2668V72.9334H108.267C108.443 72.9334 108.613 72.8632 108.738 72.7382C108.863 72.6131 108.933 72.4436 108.933 72.2668C108.933 72.09 108.863 71.9204 108.738 71.7954C108.613 71.6703 108.443 71.6001 108.267 71.6001H104.933Z" fill="#E2E8F0"/>
<path d="M136.933 71.6001V68.2668C136.933 68.09 136.863 67.9204 136.738 67.7954C136.613 67.6703 136.443 67.6001 136.267 67.6001C136.09 67.6001 135.92 67.6703 135.795 67.7954C135.67 67.9204 135.6 68.09 135.6 68.2668V71.6001H132.267C132.09 71.6001 131.92 71.6703 131.795 71.7954C131.67 71.9204 131.6 72.09 131.6 72.2668C131.6 72.4436 131.67 72.6131 131.795 72.7382C131.92 72.8632 132.09 72.9334 132.267 72.9334H135.6V76.2668C135.6 76.4436 135.67 76.6131 135.795 76.7382C135.92 76.8632 136.09 76.9334 136.267 76.9334C136.443 76.9334 136.613 76.8632 136.738 76.7382C136.863 76.6131 136.933 76.4436 136.933 76.2668V72.9334H140.267C140.443 72.9334 140.613 72.8632 140.738 72.7382C140.863 72.6131 140.933 72.4436 140.933 72.2668C140.933 72.09 140.863 71.9204 140.738 71.7954C140.613 71.6703 140.443 71.6001 140.267 71.6001H136.933Z" fill="#E2E8F0"/>
<path d="M168.933 71.6001V68.2668C168.933 68.09 168.863 67.9204 168.738 67.7954C168.613 67.6703 168.443 67.6001 168.267 67.6001C168.09 67.6001 167.92 67.6703 167.795 67.7954C167.67 67.9204 167.6 68.09 167.6 68.2668V71.6001H164.267C164.09 71.6001 163.92 71.6703 163.795 71.7954C163.67 71.9204 163.6 72.09 163.6 72.2668C163.6 72.4436 163.67 72.6131 163.795 72.7382C163.92 72.8632 164.09 72.9334 164.267 72.9334H167.6V76.2668C167.6 76.4436 167.67 76.6131 167.795 76.7382C167.92 76.8632 168.09 76.9334 168.267 76.9334C168.443 76.9334 168.613 76.8632 168.738 76.7382C168.863 76.6131 168.933 76.4436 168.933 76.2668V72.9334H172.267C172.443 72.9334 172.613 72.8632 172.738 72.7382C172.863 72.6131 172.933 72.4436 172.933 72.2668C172.933 72.09 172.863 71.9204 172.738 71.7954C172.613 71.6703 172.443 71.6001 172.267 71.6001H168.933Z" fill="#E2E8F0"/>
<path d="M8.93331 103.6V100.267C8.93331 100.09 8.86307 99.9204 8.73805 99.7954C8.61302 99.6703 8.44345 99.6001 8.26664 99.6001C8.08983 99.6001 7.92026 99.6703 7.79524 99.7954C7.67021 99.9204 7.59998 100.09 7.59998 100.267V103.6H4.26664C4.08983 103.6 3.92026 103.67 3.79524 103.795C3.67021 103.92 3.59998 104.09 3.59998 104.267C3.59998 104.444 3.67021 104.613 3.79524 104.738C3.92026 104.863 4.08983 104.933 4.26664 104.933H7.59998V108.267C7.59998 108.444 7.67021 108.613 7.79524 108.738C7.92026 108.863 8.08983 108.933 8.26664 108.933C8.44345 108.933 8.61302 108.863 8.73805 108.738C8.86307 108.613 8.93331 108.444 8.93331 108.267V104.933H12.2666C12.4435 104.933 12.613 104.863 12.738 104.738C12.8631 104.613 12.9333 104.444 12.9333 104.267C12.9333 104.09 12.8631 103.92 12.738 103.795C12.613 103.67 12.4435 103.6 12.2666 103.6H8.93331Z" fill="#E2E8F0"/>
<path d="M40.9333 103.6V100.267C40.9333 100.09 40.8631 99.9204 40.738 99.7954C40.613 99.6703 40.4435 99.6001 40.2666 99.6001C40.0898 99.6001 39.9203 99.6703 39.7952 99.7954C39.6702 99.9204 39.6 100.09 39.6 100.267V103.6H36.2666C36.0898 103.6 35.9203 103.67 35.7952 103.795C35.6702 103.92 35.6 104.09 35.6 104.267C35.6 104.444 35.6702 104.613 35.7952 104.738C35.9203 104.863 36.0898 104.933 36.2666 104.933H39.6V108.267C39.6 108.444 39.6702 108.613 39.7952 108.738C39.9203 108.863 40.0898 108.933 40.2666 108.933C40.4435 108.933 40.613 108.863 40.738 108.738C40.8631 108.613 40.9333 108.444 40.9333 108.267V104.933H44.2666C44.4435 104.933 44.613 104.863 44.738 104.738C44.8631 104.613 44.9333 104.444 44.9333 104.267C44.9333 104.09 44.8631 103.92 44.738 103.795C44.613 103.67 44.4435 103.6 44.2666 103.6H40.9333Z" fill="#2563EB"/>
<path d="M72.9333 103.6V100.267C72.9333 100.09 72.8631 99.9204 72.738 99.7954C72.613 99.6703 72.4435 99.6001 72.2666 99.6001C72.0898 99.6001 71.9203 99.6703 71.7952 99.7954C71.6702 99.9204 71.6 100.09 71.6 100.267V103.6H68.2666C68.0898 103.6 67.9203 103.67 67.7952 103.795C67.6702 103.92 67.6 104.09 67.6 104.267C67.6 104.444 67.6702 104.613 67.7952 104.738C67.9203 104.863 68.0898 104.933 68.2666 104.933H71.6V108.267C71.6 108.444 71.6702 108.613 71.7952 108.738C71.9203 108.863 72.0898 108.933 72.2666 108.933C72.4435 108.933 72.613 108.863 72.738 108.738C72.8631 108.613 72.9333 108.444 72.9333 108.267V104.933H76.2666C76.4435 104.933 76.613 104.863 76.738 104.738C76.8631 104.613 76.9333 104.444 76.9333 104.267C76.9333 104.09 76.8631 103.92 76.738 103.795C76.613 103.67 76.4435 103.6 76.2666 103.6H72.9333Z" fill="#E2E8F0"/>
<path d="M104.933 103.6V100.267C104.933 100.09 104.863 99.9204 104.738 99.7954C104.613 99.6703 104.443 99.6001 104.267 99.6001C104.09 99.6001 103.92 99.6703 103.795 99.7954C103.67 99.9204 103.6 100.09 103.6 100.267V103.6H100.267C100.09 103.6 99.9203 103.67 99.7952 103.795C99.6702 103.92 99.6 104.09 99.6 104.267C99.6 104.444 99.6702 104.613 99.7952 104.738C99.9203 104.863 100.09 104.933 100.267 104.933H103.6V108.267C103.6 108.444 103.67 108.613 103.795 108.738C103.92 108.863 104.09 108.933 104.267 108.933C104.443 108.933 104.613 108.863 104.738 108.738C104.863 108.613 104.933 108.444 104.933 108.267V104.933H108.267C108.443 104.933 108.613 104.863 108.738 104.738C108.863 104.613 108.933 104.444 108.933 104.267C108.933 104.09 108.863 103.92 108.738 103.795C108.613 103.67 108.443 103.6 108.267 103.6H104.933Z" fill="#E2E8F0"/>
<path d="M136.933 103.6V100.267C136.933 100.09 136.863 99.9204 136.738 99.7954C136.613 99.6703 136.443 99.6001 136.267 99.6001C136.09 99.6001 135.92 99.6703 135.795 99.7954C135.67 99.9204 135.6 100.09 135.6 100.267V103.6H132.267C132.09 103.6 131.92 103.67 131.795 103.795C131.67 103.92 131.6 104.09 131.6 104.267C131.6 104.444 131.67 104.613 131.795 104.738C131.92 104.863 132.09 104.933 132.267 104.933H135.6V108.267C135.6 108.444 135.67 108.613 135.795 108.738C135.92 108.863 136.09 108.933 136.267 108.933C136.443 108.933 136.613 108.863 136.738 108.738C136.863 108.613 136.933 108.444 136.933 108.267V104.933H140.267C140.443 104.933 140.613 104.863 140.738 104.738C140.863 104.613 140.933 104.444 140.933 104.267C140.933 104.09 140.863 103.92 140.738 103.795C140.613 103.67 140.443 103.6 140.267 103.6H136.933Z" fill="#E2E8F0"/>
<path d="M168.933 103.6V100.267C168.933 100.09 168.863 99.9204 168.738 99.7954C168.613 99.6703 168.443 99.6001 168.267 99.6001C168.09 99.6001 167.92 99.6703 167.795 99.7954C167.67 99.9204 167.6 100.09 167.6 100.267V103.6H164.267C164.09 103.6 163.92 103.67 163.795 103.795C163.67 103.92 163.6 104.09 163.6 104.267C163.6 104.444 163.67 104.613 163.795 104.738C163.92 104.863 164.09 104.933 164.267 104.933H167.6V108.267C167.6 108.444 167.67 108.613 167.795 108.738C167.92 108.863 168.09 108.933 168.267 108.933C168.443 108.933 168.613 108.863 168.738 108.738C168.863 108.613 168.933 108.444 168.933 108.267V104.933H172.267C172.443 104.933 172.613 104.863 172.738 104.738C172.863 104.613 172.933 104.444 172.933 104.267C172.933 104.09 172.863 103.92 172.738 103.795C172.613 103.67 172.443 103.6 172.267 103.6H168.933Z" fill="#EA580C"/>
<path d="M8.93331 135.6V132.267C8.93331 132.09 8.86307 131.92 8.73805 131.795C8.61302 131.67 8.44345 131.6 8.26664 131.6C8.08983 131.6 7.92026 131.67 7.79524 131.795C7.67021 131.92 7.59998 132.09 7.59998 132.267V135.6H4.26664C4.08983 135.6 3.92026 135.67 3.79524 135.795C3.67021 135.92 3.59998 136.09 3.59998 136.267C3.59998 136.444 3.67021 136.613 3.79524 136.738C3.92026 136.863 4.08983 136.933 4.26664 136.933H7.59998V140.267C7.59998 140.444 7.67021 140.613 7.79524 140.738C7.92026 140.863 8.08983 140.933 8.26664 140.933C8.44345 140.933 8.61302 140.863 8.73805 140.738C8.86307 140.613 8.93331 140.444 8.93331 140.267V136.933H12.2666C12.4435 136.933 12.613 136.863 12.738 136.738C12.8631 136.613 12.9333 136.444 12.9333 136.267C12.9333 136.09 12.8631 135.92 12.738 135.795C12.613 135.67 12.4435 135.6 12.2666 135.6H8.93331Z" fill="#9333EA"/>
<path d="M40.9333 135.6V132.267C40.9333 132.09 40.8631 131.92 40.738 131.795C40.613 131.67 40.4435 131.6 40.2666 131.6C40.0898 131.6 39.9203 131.67 39.7952 131.795C39.6702 131.92 39.6 132.09 39.6 132.267V135.6H36.2666C36.0898 135.6 35.9203 135.67 35.7952 135.795C35.6702 135.92 35.6 136.09 35.6 136.267C35.6 136.444 35.6702 136.613 35.7952 136.738C35.9203 136.863 36.0898 136.933 36.2666 136.933H39.6V140.267C39.6 140.444 39.6702 140.613 39.7952 140.738C39.9203 140.863 40.0898 140.933 40.2666 140.933C40.4435 140.933 40.613 140.863 40.738 140.738C40.8631 140.613 40.9333 140.444 40.9333 140.267V136.933H44.2666C44.4435 136.933 44.613 136.863 44.738 136.738C44.8631 136.613 44.9333 136.444 44.9333 136.267C44.9333 136.09 44.8631 135.92 44.738 135.795C44.613 135.67 44.4435 135.6 44.2666 135.6H40.9333Z" fill="#E2E8F0"/>
<path d="M72.9333 135.6V132.267C72.9333 132.09 72.8631 131.92 72.738 131.795C72.613 131.67 72.4435 131.6 72.2666 131.6C72.0898 131.6 71.9203 131.67 71.7952 131.795C71.6702 131.92 71.6 132.09 71.6 132.267V135.6H68.2666C68.0898 135.6 67.9203 135.67 67.7952 135.795C67.6702 135.92 67.6 136.09 67.6 136.267C67.6 136.444 67.6702 136.613 67.7952 136.738C67.9203 136.863 68.0898 136.933 68.2666 136.933H71.6V140.267C71.6 140.444 71.6702 140.613 71.7952 140.738C71.9203 140.863 72.0898 140.933 72.2666 140.933C72.4435 140.933 72.613 140.863 72.738 140.738C72.8631 140.613 72.9333 140.444 72.9333 140.267V136.933H76.2666C76.4435 136.933 76.613 136.863 76.738 136.738C76.8631 136.613 76.9333 136.444 76.9333 136.267C76.9333 136.09 76.8631 135.92 76.738 135.795C76.613 135.67 76.4435 135.6 76.2666 135.6H72.9333Z" fill="#E2E8F0"/>
<path d="M104.933 135.6V132.267C104.933 132.09 104.863 131.92 104.738 131.795C104.613 131.67 104.443 131.6 104.267 131.6C104.09 131.6 103.92 131.67 103.795 131.795C103.67 131.92 103.6 132.09 103.6 132.267V135.6H100.267C100.09 135.6 99.9203 135.67 99.7952 135.795C99.6702 135.92 99.6 136.09 99.6 136.267C99.6 136.444 99.6702 136.613 99.7952 136.738C99.9203 136.863 100.09 136.933 100.267 136.933H103.6V140.267C103.6 140.444 103.67 140.613 103.795 140.738C103.92 140.863 104.09 140.933 104.267 140.933C104.443 140.933 104.613 140.863 104.738 140.738C104.863 140.613 104.933 140.444 104.933 140.267V136.933H108.267C108.443 136.933 108.613 136.863 108.738 136.738C108.863 136.613 108.933 136.444 108.933 136.267C108.933 136.09 108.863 135.92 108.738 135.795C108.613 135.67 108.443 135.6 108.267 135.6H104.933Z" fill="#E2E8F0"/>
<path d="M136.933 135.6V132.267C136.933 132.09 136.863 131.92 136.738 131.795C136.613 131.67 136.443 131.6 136.267 131.6C136.09 131.6 135.92 131.67 135.795 131.795C135.67 131.92 135.6 132.09 135.6 132.267V135.6H132.267C132.09 135.6 131.92 135.67 131.795 135.795C131.67 135.92 131.6 136.09 131.6 136.267C131.6 136.444 131.67 136.613 131.795 136.738C131.92 136.863 132.09 136.933 132.267 136.933H135.6V140.267C135.6 140.444 135.67 140.613 135.795 140.738C135.92 140.863 136.09 140.933 136.267 140.933C136.443 140.933 136.613 140.863 136.738 140.738C136.863 140.613 136.933 140.444 136.933 140.267V136.933H140.267C140.443 136.933 140.613 136.863 140.738 136.738C140.863 136.613 140.933 136.444 140.933 136.267C140.933 136.09 140.863 135.92 140.738 135.795C140.613 135.67 140.443 135.6 140.267 135.6H136.933Z" fill="#E2E8F0"/>
<path d="M168.933 135.6V132.267C168.933 132.09 168.863 131.92 168.738 131.795C168.613 131.67 168.443 131.6 168.267 131.6C168.09 131.6 167.92 131.67 167.795 131.795C167.67 131.92 167.6 132.09 167.6 132.267V135.6H164.267C164.09 135.6 163.92 135.67 163.795 135.795C163.67 135.92 163.6 136.09 163.6 136.267C163.6 136.444 163.67 136.613 163.795 136.738C163.92 136.863 164.09 136.933 164.267 136.933H167.6V140.267C167.6 140.444 167.67 140.613 167.795 140.738C167.92 140.863 168.09 140.933 168.267 140.933C168.443 140.933 168.613 140.863 168.738 140.738C168.863 140.613 168.933 140.444 168.933 140.267V136.933H172.267C172.443 136.933 172.613 136.863 172.738 136.738C172.863 136.613 172.933 136.444 172.933 136.267C172.933 136.09 172.863 135.92 172.738 135.795C172.613 135.67 172.443 135.6 172.267 135.6H168.933Z" fill="#E2E8F0"/>
<path d="M8.93331 167.6V164.267C8.93331 164.09 8.86307 163.92 8.73805 163.795C8.61302 163.67 8.44345 163.6 8.26664 163.6C8.08983 163.6 7.92026 163.67 7.79524 163.795C7.67021 163.92 7.59998 164.09 7.59998 164.267V167.6H4.26664C4.08983 167.6 3.92026 167.67 3.79524 167.795C3.67021 167.92 3.59998 168.09 3.59998 168.267C3.59998 168.444 3.67021 168.613 3.79524 168.738C3.92026 168.863 4.08983 168.933 4.26664 168.933H7.59998V172.267C7.59998 172.444 7.67021 172.613 7.79524 172.738C7.92026 172.863 8.08983 172.933 8.26664 172.933C8.44345 172.933 8.61302 172.863 8.73805 172.738C8.86307 172.613 8.93331 172.444 8.93331 172.267V168.933H12.2666C12.4435 168.933 12.613 168.863 12.738 168.738C12.8631 168.613 12.9333 168.444 12.9333 168.267C12.9333 168.09 12.8631 167.92 12.738 167.795C12.613 167.67 12.4435 167.6 12.2666 167.6H8.93331Z" fill="#E2E8F0"/>
<path d="M40.9333 167.6V164.267C40.9333 164.09 40.8631 163.92 40.738 163.795C40.613 163.67 40.4435 163.6 40.2666 163.6C40.0898 163.6 39.9203 163.67 39.7952 163.795C39.6702 163.92 39.6 164.09 39.6 164.267V167.6H36.2666C36.0898 167.6 35.9203 167.67 35.7952 167.795C35.6702 167.92 35.6 168.09 35.6 168.267C35.6 168.444 35.6702 168.613 35.7952 168.738C35.9203 168.863 36.0898 168.933 36.2666 168.933H39.6V172.267C39.6 172.444 39.6702 172.613 39.7952 172.738C39.9203 172.863 40.0898 172.933 40.2666 172.933C40.4435 172.933 40.613 172.863 40.738 172.738C40.8631 172.613 40.9333 172.444 40.9333 172.267V168.933H44.2666C44.4435 168.933 44.613 168.863 44.738 168.738C44.8631 168.613 44.9333 168.444 44.9333 168.267C44.9333 168.09 44.8631 167.92 44.738 167.795C44.613 167.67 44.4435 167.6 44.2666 167.6H40.9333Z" fill="#E2E8F0"/>
<path d="M72.9333 167.6V164.267C72.9333 164.09 72.8631 163.92 72.738 163.795C72.613 163.67 72.4435 163.6 72.2666 163.6C72.0898 163.6 71.9203 163.67 71.7952 163.795C71.6702 163.92 71.6 164.09 71.6 164.267V167.6H68.2666C68.0898 167.6 67.9203 167.67 67.7952 167.795C67.6702 167.92 67.6 168.09 67.6 168.267C67.6 168.444 67.6702 168.613 67.7952 168.738C67.9203 168.863 68.0898 168.933 68.2666 168.933H71.6V172.267C71.6 172.444 71.6702 172.613 71.7952 172.738C71.9203 172.863 72.0898 172.933 72.2666 172.933C72.4435 172.933 72.613 172.863 72.738 172.738C72.8631 172.613 72.9333 172.444 72.9333 172.267V168.933H76.2666C76.4435 168.933 76.613 168.863 76.738 168.738C76.8631 168.613 76.9333 168.444 76.9333 168.267C76.9333 168.09 76.8631 167.92 76.738 167.795C76.613 167.67 76.4435 167.6 76.2666 167.6H72.9333Z" fill="#2563EB"/>
<path d="M104.933 167.6V164.267C104.933 164.09 104.863 163.92 104.738 163.795C104.613 163.67 104.443 163.6 104.267 163.6C104.09 163.6 103.92 163.67 103.795 163.795C103.67 163.92 103.6 164.09 103.6 164.267V167.6H100.267C100.09 167.6 99.9203 167.67 99.7952 167.795C99.6702 167.92 99.6 168.09 99.6 168.267C99.6 168.444 99.6702 168.613 99.7952 168.738C99.9203 168.863 100.09 168.933 100.267 168.933H103.6V172.267C103.6 172.444 103.67 172.613 103.795 172.738C103.92 172.863 104.09 172.933 104.267 172.933C104.443 172.933 104.613 172.863 104.738 172.738C104.863 172.613 104.933 172.444 104.933 172.267V168.933H108.267C108.443 168.933 108.613 168.863 108.738 168.738C108.863 168.613 108.933 168.444 108.933 168.267C108.933 168.09 108.863 167.92 108.738 167.795C108.613 167.67 108.443 167.6 108.267 167.6H104.933Z" fill="#E2E8F0"/>
<path d="M136.933 167.6V164.267C136.933 164.09 136.863 163.92 136.738 163.795C136.613 163.67 136.443 163.6 136.267 163.6C136.09 163.6 135.92 163.67 135.795 163.795C135.67 163.92 135.6 164.09 135.6 164.267V167.6H132.267C132.09 167.6 131.92 167.67 131.795 167.795C131.67 167.92 131.6 168.09 131.6 168.267C131.6 168.444 131.67 168.613 131.795 168.738C131.92 168.863 132.09 168.933 132.267 168.933H135.6V172.267C135.6 172.444 135.67 172.613 135.795 172.738C135.92 172.863 136.09 172.933 136.267 172.933C136.443 172.933 136.613 172.863 136.738 172.738C136.863 172.613 136.933 172.444 136.933 172.267V168.933H140.267C140.443 168.933 140.613 168.863 140.738 168.738C140.863 168.613 140.933 168.444 140.933 168.267C140.933 168.09 140.863 167.92 140.738 167.795C140.613 167.67 140.443 167.6 140.267 167.6H136.933Z" fill="#E2E8F0"/>
<path d="M168.933 167.6V164.267C168.933 164.09 168.863 163.92 168.738 163.795C168.613 163.67 168.443 163.6 168.267 163.6C168.09 163.6 167.92 163.67 167.795 163.795C167.67 163.92 167.6 164.09 167.6 164.267V167.6H164.267C164.09 167.6 163.92 167.67 163.795 167.795C163.67 167.92 163.6 168.09 163.6 168.267C163.6 168.444 163.67 168.613 163.795 168.738C163.92 168.863 164.09 168.933 164.267 168.933H167.6V172.267C167.6 172.444 167.67 172.613 167.795 172.738C167.92 172.863 168.09 172.933 168.267 172.933C168.443 172.933 168.613 172.863 168.738 172.738C168.863 172.613 168.933 172.444 168.933 172.267V168.933H172.267C172.443 168.933 172.613 168.863 172.738 168.738C172.863 168.613 172.933 168.444 172.933 168.267C172.933 168.09 172.863 167.92 172.738 167.795C172.613 167.67 172.443 167.6 172.267 167.6H168.933Z" fill="#E2E8F0"/>
</svg>
