<svg width="56" height="56" viewBox="0 0 56 56" fill="none" xmlns="http://www.w3.org/2000/svg">
<rect width="56" height="56" rx="5.25" fill="#1877F9"/>
<path d="M27.8802 30.5087H27.9327C29.0577 30.5387 29.9577 31.4537 29.9577 32.5787C29.9577 33.5387 29.3052 34.3412 28.4202 34.5812V35.4212C28.4202 35.7212 28.1802 35.9612 27.8802 35.9612C27.5802 35.9612 27.3402 35.7212 27.3402 35.4212V34.5812C26.8995 34.4627 26.5102 34.2023 26.2323 33.8404C25.9543 33.4784 25.8034 33.035 25.8027 32.5787C25.8027 32.2787 26.0427 32.0387 26.3427 32.0387C26.6427 32.0387 26.8827 32.2787 26.8827 32.5787C26.8827 33.1337 27.3252 33.5762 27.8727 33.5762C28.4202 33.5762 28.8702 33.1262 28.8702 32.5787C28.8702 32.0312 28.4202 31.5812 27.8727 31.5812H27.8202C27.2807 31.5665 26.7681 31.3421 26.3914 30.9556C26.0147 30.5691 25.8035 30.0509 25.8027 29.5112C25.8027 28.5512 26.4552 27.7487 27.3402 27.5087V26.6687C27.3402 26.3687 27.5802 26.1287 27.8802 26.1287C28.1802 26.1287 28.4202 26.3687 28.4202 26.6687V27.5087C29.3052 27.7487 29.9577 28.5512 29.9577 29.5112C29.9577 29.8112 29.7177 30.0512 29.4177 30.0512C29.1177 30.0512 28.8777 29.8112 28.8777 29.5112C28.8777 28.9637 28.4277 28.5137 27.8802 28.5137C27.3327 28.5137 26.8827 28.9637 26.8827 29.5112C26.8827 30.0587 27.3327 30.5087 27.8802 30.5087Z" fill="white"/>
<path d="M23.899 19.8249L25.9885 22.2699L25.7628 22.5219C21.4623 23.4864 18.25 27.3271 18.25 31.9186C18.25 35.9551 21.526 39.2311 25.5625 39.2311H30.19C34.2265 39.2311 37.5025 35.9559 37.5025 31.9194C37.51 27.3271 34.2978 23.4864 29.9973 22.5219C30.0147 22.3634 29.9861 22.2032 29.9148 22.0606L31.6923 20.0259L31.807 19.8489C31.941 19.5566 31.9753 19.2285 31.9046 18.9148C31.8338 18.6012 31.6621 18.3195 31.4156 18.113C31.1692 17.9065 30.8617 17.7867 30.5406 17.772C30.2194 17.7573 29.9023 17.8485 29.638 18.0316L29.0058 17.2816C28.8639 17.1229 28.6902 16.9959 28.496 16.9088C28.3018 16.8217 28.0914 16.7765 27.8786 16.7761C27.6657 16.7758 27.4552 16.8203 27.2607 16.9067C27.0662 16.9932 26.8921 17.1197 26.7498 17.2779L26.0875 18.0174C25.8239 17.8305 25.5061 17.7356 25.1832 17.7475C24.8603 17.7594 24.5502 17.8773 24.3011 18.0831C24.052 18.2889 23.8776 18.571 23.8049 18.8859C23.7322 19.2007 23.7653 19.5307 23.899 19.8249ZM26.7483 20.8636L25.4763 19.3936C25.7718 19.536 26.1061 19.5765 26.4271 19.5086C26.748 19.4408 27.0374 19.2685 27.25 19.0186L27.85 18.2401L28.516 19.0291C28.7237 19.2706 29.0038 19.4386 29.3146 19.5079C29.6255 19.5772 29.9504 19.5442 30.241 19.4139L28.975 20.8636H26.7483ZM19.75 31.9186C19.75 27.4276 23.389 23.7886 27.88 23.7886C32.371 23.7886 36.01 27.4276 36.0025 31.9171V31.9186C36.0019 33.46 35.3893 34.9381 34.2994 36.028C33.2095 37.118 31.7314 37.7305 30.19 37.7311H25.5625C24.0211 37.7305 22.543 37.118 21.4531 36.028C20.3632 34.9381 19.7506 33.46 19.75 31.9186Z" fill="white"/>
</svg>
