<svg width="56" height="56" viewBox="0 0 56 56" fill="none" xmlns="http://www.w3.org/2000/svg">
<rect width="56" height="56" rx="5.25" fill="#1877F9"/>
<path d="M35.5 19C35.5 19.8281 35.3828 20.6328 35.1484 21.4141C34.9141 22.1953 34.5586 22.9336 34.082 23.6289C33.8398 23.9805 33.5859 24.3008 33.3203 24.5898C33.0547 24.8789 32.7734 25.1406 32.4766 25.375C32.1797 25.6094 31.8594 25.832 31.5156 26.043C31.1719 26.2539 30.8125 26.4453 30.4375 26.6172C30.1484 26.75 29.9219 26.9297 29.7578 27.1562C29.5938 27.3828 29.5078 27.6641 29.5 28C29.5 28.3281 29.582 28.6055 29.7461 28.832C29.9102 29.0586 30.1406 29.2422 30.4375 29.3828C30.8203 29.5625 31.1797 29.7539 31.5156 29.957C31.8516 30.1602 32.168 30.3789 32.4648 30.6133C32.7617 30.8477 33.0469 31.1133 33.3203 31.4102C33.5938 31.707 33.8477 32.0273 34.082 32.3711C34.5508 33.0586 34.9023 33.793 35.1367 34.5742C35.3711 35.3555 35.4922 36.1641 35.5 37H37V38.5H17.5V37H19C19 36.1719 19.1172 35.3672 19.3516 34.5859C19.5859 33.8047 19.9414 33.0664 20.418 32.3711C20.668 32.0039 20.9258 31.6797 21.1914 31.3984C21.457 31.1172 21.7344 30.8555 22.0234 30.6133C22.3125 30.3711 22.6289 30.1562 22.9727 29.9688C23.3164 29.7812 23.6797 29.5898 24.0625 29.3945C24.3438 29.2617 24.5703 29.0781 24.7422 28.8438C24.9141 28.6094 25 28.3281 25 28C25 27.6719 24.918 27.3945 24.7539 27.168C24.5898 26.9414 24.3594 26.7578 24.0625 26.6172C23.6797 26.4375 23.3203 26.2461 22.9844 26.043C22.6484 25.8398 22.332 25.6211 22.0352 25.3867C21.7383 25.1523 21.4531 24.8867 21.1797 24.5898C20.9062 24.293 20.6523 23.9727 20.418 23.6289C19.9492 22.9414 19.5977 22.207 19.3633 21.4258C19.1289 20.6445 19.0078 19.8359 19 19H17.5V17.5H37V19H35.5ZM28 28C28 27.3594 28.168 26.8047 28.5039 26.3359C28.8398 25.8672 29.2891 25.4961 29.8516 25.2227C30.0781 25.1133 30.2969 25.0078 30.5078 24.9062C30.7188 24.8047 30.9258 24.6758 31.1289 24.5195C31.582 24.207 31.9844 23.8477 32.3359 23.4414C32.6875 23.0352 32.9883 22.5938 33.2383 22.1172C33.4883 21.6406 33.6758 21.1406 33.8008 20.6172C33.9258 20.0938 33.9922 19.5547 34 19H20.5C20.5 19.5469 20.5625 20.082 20.6875 20.6055C20.8125 21.1289 21 21.6289 21.25 22.1055C21.5 22.582 21.8008 23.0234 22.1523 23.4297C22.5039 23.8359 22.9102 24.1992 23.3711 24.5195C23.5742 24.668 23.7812 24.793 23.9922 24.8945C24.2031 24.9961 24.4219 25.1055 24.6484 25.2227C25.2109 25.4961 25.6602 25.8672 25.9961 26.3359C26.332 26.8047 26.5 27.3594 26.5 28C26.5 28.6406 26.332 29.1953 25.9961 29.6641C25.6602 30.1328 25.2109 30.5039 24.6484 30.7773C24.4219 30.8867 24.2031 30.9922 23.9922 31.0938C23.7812 31.1953 23.5742 31.3242 23.3711 31.4805C22.918 31.793 22.5156 32.1523 22.1641 32.5586C21.8125 32.9648 21.5117 33.4062 21.2617 33.8828C21.0117 34.3594 20.8242 34.8594 20.6992 35.3828C20.5742 35.9062 20.5078 36.4453 20.5 37H34C34 36.4531 33.9375 35.918 33.8125 35.3945C33.6875 34.8711 33.5 34.3711 33.25 33.8945C33 33.418 32.6992 32.9766 32.3477 32.5703C31.9961 32.1641 31.5898 31.8008 31.1289 31.4805C30.9258 31.332 30.7188 31.207 30.5078 31.1055C30.2969 31.0039 30.0781 30.8945 29.8516 30.7773C29.2891 30.5039 28.8398 30.1328 28.5039 29.6641C28.168 29.1953 28 28.6406 28 28Z" fill="white"/>
</svg>
