<svg width="40" height="40" viewBox="0 0 40 40" fill="none" xmlns="http://www.w3.org/2000/svg">
<circle cx="20" cy="20" r="20" fill="#151515"/>
<path d="M21.5656 8.3335C22.9156 8.3371 23.6007 8.3443 24.1923 8.36109L24.4251 8.36949C24.6939 8.37909 24.9591 8.39109 25.2795 8.40549C26.5562 8.46549 27.4273 8.66708 28.1917 8.96346C28.9837 9.26825 29.6508 9.68103 30.318 10.347C30.9282 10.9468 31.4003 11.6724 31.7015 12.4733C31.9979 13.2376 32.1995 14.1088 32.2595 15.3867C32.2739 15.7059 32.2859 15.9711 32.2955 16.2411L32.3027 16.4739C32.3207 17.0643 32.3279 17.7494 32.3303 19.0993L32.3315 19.9945V21.5664C32.3344 22.4417 32.3252 23.3169 32.3039 24.1919L32.2967 24.4247C32.2871 24.6947 32.2751 24.9598 32.2607 25.279C32.2007 26.557 31.9967 27.4269 31.7015 28.1925C31.4012 28.9938 30.9289 29.7195 30.318 30.3188C29.718 30.9287 28.9924 31.4008 28.1917 31.7023C27.4273 31.9987 26.5562 32.2003 25.2795 32.2603C24.9947 32.2737 24.7099 32.2857 24.4251 32.2963L24.1923 32.3035C23.6007 32.3203 22.9156 32.3287 21.5656 32.3311L20.6705 32.3323H19.0998C18.2241 32.3353 17.3485 32.3261 16.4731 32.3047L16.2403 32.2975C15.9555 32.2867 15.6707 32.2743 15.386 32.2603C14.1092 32.2003 13.2381 31.9987 12.4725 31.7023C11.6718 31.4016 10.9465 30.9294 10.3474 30.3188C9.73671 29.7191 9.26414 28.9935 8.96269 28.1925C8.66631 27.4281 8.46472 26.557 8.40472 25.279C8.39135 24.9943 8.37935 24.7095 8.36872 24.4247L8.36272 24.1919C8.34061 23.3169 8.33061 22.4417 8.33272 21.5664V19.0993C8.32937 18.2241 8.33818 17.3489 8.35912 16.4739L8.36752 16.2411C8.37712 15.9711 8.38912 15.7059 8.40352 15.3867C8.46352 14.1088 8.66511 13.2388 8.96149 12.4733C9.26281 11.6716 9.73632 10.9458 10.3486 10.347C10.9475 9.73679 11.6723 9.26463 12.4725 8.96346C13.2381 8.66708 14.108 8.46549 15.386 8.40549C15.7051 8.39109 15.9715 8.37909 16.2403 8.36949L16.4731 8.36229C17.3481 8.34097 18.2233 8.33177 19.0986 8.3347L21.5656 8.3335ZM20.3321 14.3332C18.7409 14.3332 17.2148 14.9653 16.0897 16.0905C14.9645 17.2156 14.3324 18.7417 14.3324 20.3329C14.3324 21.9241 14.9645 23.4501 16.0897 24.5753C17.2148 25.7005 18.7409 26.3326 20.3321 26.3326C21.9233 26.3326 23.4494 25.7005 24.5745 24.5753C25.6997 23.4501 26.3318 21.9241 26.3318 20.3329C26.3318 18.7417 25.6997 17.2156 24.5745 16.0905C23.4494 14.9653 21.9233 14.3332 20.3321 14.3332ZM20.3321 16.7331C20.8048 16.733 21.273 16.826 21.7097 17.0069C22.1465 17.1877 22.5434 17.4528 22.8777 17.787C23.2121 18.1212 23.4773 18.518 23.6583 18.9547C23.8393 19.3915 23.9324 19.8595 23.9325 20.3323C23.9326 20.805 23.8396 21.2731 23.6587 21.7099C23.4779 22.1467 23.2128 22.5436 22.8786 22.8779C22.5444 23.2122 22.1476 23.4775 21.7109 23.6585C21.2741 23.8394 20.806 23.9326 20.3333 23.9327C19.3786 23.9327 18.463 23.5534 17.7879 22.8783C17.1128 22.2032 16.7335 21.2876 16.7335 20.3329C16.7335 19.3782 17.1128 18.4625 17.7879 17.7874C18.463 17.1123 19.3786 16.7331 20.3333 16.7331M26.633 12.5333C26.2352 12.5333 25.8537 12.6913 25.5724 12.9726C25.2911 13.2539 25.1331 13.6354 25.1331 14.0332C25.1331 14.431 25.2911 14.8125 25.5724 15.0938C25.8537 15.3751 26.2352 15.5331 26.633 15.5331C27.0308 15.5331 27.4123 15.3751 27.6936 15.0938C27.9749 14.8125 28.1329 14.431 28.1329 14.0332C28.1329 13.6354 27.9749 13.2539 27.6936 12.9726C27.4123 12.6913 27.0308 12.5333 26.633 12.5333Z" fill="white"/>
</svg>
