<svg width="40" height="40" viewBox="0 0 40 40" fill="none" xmlns="http://www.w3.org/2000/svg">
<circle cx="20" cy="20" r="20" fill="#151515"/>
<path d="M13.0367 11.5196C13.0364 12.1875 12.7707 12.828 12.2982 13.3C11.8257 13.7721 11.185 14.0371 10.5171 14.0367C9.84919 14.0364 9.20877 13.7707 8.73672 13.2982C8.26467 12.8257 7.99967 12.185 8 11.5171C8.00033 10.8492 8.26598 10.2088 8.7385 9.73672C9.21102 9.26467 9.85171 8.99967 10.5196 9C11.1875 9.00033 11.828 9.26598 12.3 9.7385C12.7721 10.211 13.0371 10.8517 13.0367 11.5196ZM13.1123 15.9016H8.07555V31.6665H13.1123V15.9016ZM21.0703 15.9016H16.0588V31.6665H21.0199V23.3937C21.0199 18.7851 27.0262 18.357 27.0262 23.3937V31.6665H32V21.6812C32 13.9121 23.1102 14.2017 21.0199 18.017L21.0703 15.9016Z" fill="#F1F1F1"/>
</svg>
