<svg width="40" height="40" viewBox="0 0 40 40" fill="none" xmlns="http://www.w3.org/2000/svg">
<circle cx="20" cy="20" r="20" fill="#151515"/>
<path d="M32 12.2945C31.1166 12.696 30.1644 12.9598 29.1778 13.086C30.1874 12.478 30.9675 11.5143 31.3346 10.3556C30.3824 10.9293 29.327 11.3308 28.2141 11.5602C27.3078 10.5736 26.0344 10 24.5889 10C21.8929 10 19.6902 12.2027 19.6902 14.9216C19.6902 15.3117 19.7361 15.6902 19.8164 16.0459C15.7323 15.8394 12.0956 13.8776 9.67495 10.9063C9.25048 11.6291 9.00956 12.478 9.00956 13.3728C9.00956 15.0822 9.86998 16.5966 11.2008 17.457C10.3862 17.457 9.62906 17.2275 8.96367 16.8834V16.9178C8.96367 19.304 10.6616 21.3002 12.9101 21.7476C12.1882 21.9452 11.4303 21.9727 10.696 21.8279C11.0076 22.8059 11.6178 23.6617 12.4409 24.2749C13.264 24.8881 14.2586 25.2279 15.2849 25.2467C13.5453 26.6238 11.3889 27.3682 9.17017 27.3576C8.78011 27.3576 8.39006 27.3346 8 27.2887C10.1797 28.6883 12.7725 29.5029 15.5488 29.5029C24.5889 29.5029 29.5564 22 29.5564 15.4952C29.5564 15.2772 29.5564 15.0707 29.5449 14.8528C30.5086 14.1644 31.3346 13.2925 32 12.2945Z" fill="#F1F1F1"/>
</svg>
