<svg width="44" height="46" viewBox="0 0 44 46" fill="none" xmlns="http://www.w3.org/2000/svg">
<path d="M43.3047 33.6464L43.314 33.6413H43.2959L32.6696 27.8833L22.0257 22.1152L11.3814 27.8833L0.755113 33.6413H0.73703L0.746282 33.6464L0.73703 33.6515H0.755113L11.3814 39.4094L22.0257 45.1775L32.6696 39.4094L43.2959 33.6515H43.314L43.3047 33.6464Z" fill="#DCD8FF"/>
<path d="M43.3047 11.5312L43.314 11.5265H43.2959L32.6696 5.76811L22.0257 0L11.3814 5.76811L0.755113 11.5265H0.73703L0.746282 11.5312L0.73703 11.5362H0.755113L11.3814 17.2946L22.0257 23.0627L32.6696 17.2946L43.2959 11.5362H43.314L43.3047 11.5312Z" fill="#4A3AFF"/>
<path d="M0.755096 11.0625V34.1151L22.0257 22.589L0.755096 11.0625Z" fill="#B8B1FF"/>
<path d="M43.2958 11.0625V34.1151L22.0256 22.589L43.2958 11.0625Z" fill="#B8B1FF"/>
</svg>
